<svg id="Layer_1" xmlns="http://www.w3.org/2000/svg" viewBox="0 0 581 220"><style>.st0{fill:#fff}</style><path class="st0" d="M53.4 51.7c-8.7 0-16.8 2-24.4 6.1V0H0v158.5l2.4 1.1c10.7 5.1 26.1 8.3 40.4 8.3 36.8 0 59.6-23.1 59.6-60.3 0-32.4-20.6-55.9-49-55.9zm-7.8 88.4c-4.6 0-11.2-.9-16.5-2.2V87c7.2-6.2 12.2-8.3 19.3-8.3 15 0 24.6 12.6 24.6 32 0 17.2-11.3 29.4-27.4 29.4zm67.9-86.3h29v112.1h-29zm14.6-43.7c-9.1 0-16.5 7.4-16.5 16.5s7.4 16.5 16.5 16.5 16.5-7.4 16.5-16.5-7.4-16.5-16.5-16.5zM156.8 0h29v165.8h-29zm43.4 0h29v165.8h-29zm99.6 51.7c-9.7 0-19.3 3.7-27.2 10.1V0h-29v165.8h29V88.9c8.3-9 14.2-12.4 21.6-12.4 9.9 0 16.1 8 16.1 20.9v68.4h29V98.1c0-28.6-15.1-46.4-39.5-46.4zm218 2.1H478v165.1h29v-53.8c5.8 1.9 11 2.8 16.5 2.8 32.9 0 56.8-24.1 56.8-57.3.1-36.7-22.1-56.8-62.5-56.8zm33.2 56.6c0 17.7-12.1 30.6-28.8 30.6-5 0-10.2-1.1-15.2-3.1V80.7h14.5c19.6 0 29.5 10 29.5 29.7zM408.5 51.7c-33 0-58.9 25.1-58.9 57.1 0 34.3 24.8 59.1 58.9 59.1 35.5 0 60.3-24.3 60.3-59.1 0-33.1-25.3-57.1-60.3-57.1zm-37.8 31.7c-.1-.3-.1-.6.1-.9v-.1c1.4-3.6 13.2-9.2 28.1-13.2 16.1-4.4 29.9-5.2 31.6-2.1-.2-.3-.4-.5-.7-.7h-.1c.3.3.6.5.7.8 1 3.4-11.4 9.9-27.9 14.3-16.5 4.5-30.8 5.3-31.8 1.9zm34.4 8.8c14.6-3.9 26.2-9.2 28.3-13l1.2 4.1c-2.1 3.8-13.6 9.6-28.2 13.5-15.1 4.1-28.3 3.7-31.7 1.2-.3-1-1.3-4.2-1.3-4.2 3.6 2.6 16.6 2.5 31.7-1.6zm4.5 51.6c-19.5 0-35.3-15.8-35.3-35.3 0-2 .2-4 .5-5.9 1.6 1 11.1 5.1 36.4-1.9 0 0 8.3-2.4 14.5-5.4 5.4-2.7 10.3-5.9 11.3-9 4.9 6.1 7.9 13.8 7.9 22.2 0 19.5-15.8 35.3-35.3 35.3z"/></svg>