<?xml version="1.0" encoding="iso-8859-1"?>
<!-- Generator: Adobe Illustrator 20.1.0, SVG Export Plug-In . SVG Version: 6.00 Build 0)  -->
<!DOCTYPE svg PUBLIC "-//W3C//DTD SVG 1.1//EN" "http://www.w3.org/Graphics/SVG/1.1/DTD/svg11.dtd">
<svg version="1.1" id="Layer_1" xmlns="http://www.w3.org/2000/svg" xmlns:xlink="http://www.w3.org/1999/xlink" x="0px" y="0px"
	 viewBox="0 0 301 229" style="enable-background:new 0 0 301 229;" xml:space="preserve">
<rect style="fill:none;" width="301" height="229"/>
<g>
	<path style="fill:#FFE1DC;" d="M256.599,69.613c-58.851-36.608-154.06-36.776-212.658-0.375s-58.391,95.587,0.46,132.196
		s154.06,36.776,212.658,0.375S315.45,106.221,256.599,69.613"/>
	<g style="enable-background:new    ;">
		<defs>
			<polygon id="SVGID_1_" style="enable-background:new    ;" points="17.233,165.832 136.575,96.76 177.468,120.466 
				58.125,189.538 			"/>
		</defs>
		<clipPath id="SVGID_2_">
			<use xlink:href="#SVGID_1_"  style="overflow:visible;"/>
		</clipPath>
		<polyline style="clip-path:url(#SVGID_2_);fill:#DDB5B1;" points="177.468,120.466 136.575,96.76 17.233,165.832 58.125,189.538 
			177.468,120.466 		"/>
	</g>
	<path style="fill:#555555;" d="M214.178,168.327c-0.562,0.396-1.167,0.688-1.721,0.836c-0.599,0.11-1.186,0.101-1.71-0.025
		c-0.009-0.001-0.229-0.044-0.452-0.127l-0.134-0.046c0.115-0.242,0.265-0.579,0.396-0.949c0.248-0.654,0.435-1.279,0.438-1.29
		c0.41-1.581-0.708-2.991-2.022-3.565c-1.302-0.589-2.428-0.131-3.093,1.27c-0.559,1.324-0.26,3.16,1.196,3.935
		c0.024,0.014,0.602,0.341,1.227,0.605c0.334,0.141,0.681,0.273,0.931,0.367l-0.298,0.572c-0.237,0.448-0.589,0.835-1.077,1.185
		c-0.46,0.341-0.987,0.575-1.525,0.678l0.062,0.324l-0.075-0.321c-1.053,0.25-2.159,0.036-3.023-0.575l-0.507-0.388l0.633-0.758
		l0.801-1.053c1.02-1.379,0.486-3.157-0.621-4.081c-1.175-0.974-2.762-0.812-3.774,0.383c-1.021,1.244-0.909,3.095,0.252,4.126
		l0.999,0.872l0.761,0.606l-0.415,0.476c-0.673,0.748-1.681,1.204-2.696,1.221l0.006,0.33l-0.012-0.33
		c-1.008,0.048-1.998-0.35-2.709-1.051l-0.443-0.449l1.632-1.594c1.106-1.115,1.104-2.971-0.008-4.136
		c-0.527-0.552-1.229-0.862-1.975-0.875c-0.017-0.001-0.032-0.001-0.048-0.001c-0.729,0-1.428,0.286-1.974,0.809
		c-1.157,1.113-1.216,2.969-0.129,4.139l1.567,1.643l-0.454,0.429c-0.715,0.674-1.647,1.035-2.669,0.99
		c-0.986-0.042-1.888-0.464-2.539-1.188l-0.416-0.459l1.66-1.532c1.179-1.086,1.263-2.94,0.188-4.134
		c-0.518-0.575-1.232-0.913-2.011-0.951c-0.785-0.029-1.547,0.236-2.134,0.772c-0.57,0.524-0.902,1.239-0.934,2.013
		c-0.032,0.79,0.247,1.545,0.784,2.126l1.519,1.667l-0.451,0.422c-0.688,0.648-1.606,1.018-2.523,0.999l-0.005,0.33l-0.009-0.33
		c-0.879,0.046-1.658-0.506-2.156-0.951l-0.454-0.408c0.127-0.19,0.315-0.465,0.526-0.754l0.529-0.698
		c0.13-0.169,0.223-0.265,0.242-0.285c0.556-0.625,0.834-1.442,0.766-2.243c-0.063-0.744-0.432-1.42-1.04-1.904
		c-0.631-0.49-1.513-0.692-2.506-0.581c-0.884,0.143-1.717,0.645-2.234,1.353c-0.433,0.647-0.57,1.37-0.399,2.091
		c0.188,0.792,0.729,1.493,1.478,1.917c0.003,0.001,0.552,0.34,1.042,0.688l0.668,0.489c0.026,0.02,0.04,0.033,0.063,0.051
		c-0.028,0.048-0.057,0.1-0.084,0.154l-0.211,0.397c-0.204,0.398-0.449,0.727-0.752,0.999c-0.252,0.28-0.522,0.464-0.826,0.562
		l0.102,0.314l-0.13-0.304c-0.325,0.14-0.638,0.194-0.988,0.161c-0.446-0.019-0.812-0.089-1.193-0.228l-0.422-0.144
		c-0.057-0.018-0.113-0.035-0.166-0.049l0.006-0.086c0.027-0.213,0.071-0.502,0.126-0.801c0.104-0.584,0.262-1.201,0.261-1.201
		c0.252-0.821,0.161-1.725-0.242-2.417c-0.373-0.641-0.975-1.069-1.759-1.242c-0.884-0.15-1.85,0.094-2.6,0.643
		c-0.83,0.633-1.331,1.439-1.411,2.264c-0.097,0.75,0.098,1.439,0.56,1.993c0.521,0.623,1.363,1.022,2.253,1.068l0.396,0.022
		c0.249,0.012,0.544,0.046,0.817,0.098c0.362,0.059,0.689,0.127,0.908,0.175l-0.021,0.601c-0.012,0.457-0.068,0.869-0.167,1.219
		c-0.052,0.17-0.12,0.323-0.221,0.487c-0.081,0.166-0.169,0.302-0.268,0.416c-0.254,0.268-0.535,0.481-0.844,0.643
		c-0.375,0.171-0.786,0.296-1.222,0.372l-0.596,0.106c-0.072-0.219-0.174-0.541-0.274-0.894c-0.085-0.294-0.161-0.591-0.201-0.812
		l-0.075-0.386c-0.166-0.871-0.658-1.622-1.352-2.061c-0.617-0.391-1.331-0.492-2.061-0.307c-0.798,0.191-1.516,0.76-2.026,1.613
		c-0.439,0.802-0.553,1.72-0.31,2.524c0.235,0.729,0.734,1.307,1.405,1.629c0.394,0.188,0.828,0.283,1.269,0.283
		c0.373,0,0.749-0.068,1.107-0.204c0.003-0.001,0.601-0.217,1.188-0.386l0.813-0.225c0.031-0.008,0.049-0.011,0.077-0.018
		c0.019,0.05,0.04,0.104,0.062,0.159l0.169,0.414c0.345,0.852,0.389,1.681,0.126,2.399c-0.277,0.758-0.854,1.385-1.68,1.818
		l-0.526,0.295c-0.135-0.196-0.327-0.48-0.519-0.781l-0.645-1.086c-0.415-0.737-1.103-1.275-1.886-1.476
		c-0.717-0.185-1.466-0.066-2.104,0.332c-0.714,0.443-1.222,1.181-1.394,2.021c-0.204,0.948-0.03,1.413,0.415,2.044
		c0.594,0.812,1.618,1.405,2.667,1.405c0.443,0,0.892-0.106,1.312-0.347c0,0,0.563-0.333,1.145-0.729
		c0.277-0.197,0.539-0.353,0.735-0.467l0.08-0.047l0.324,0.454c0.241,0.452,0.393,0.998,0.438,1.575
		c0.032,0.515-0.062,1.087-0.285,1.748c-0.205,0.521-0.528,1.022-0.948,1.474c-0.399,0.384-0.877,0.682-1.388,0.863
		c-0.004,0.002-0.223,0.084-0.452,0.148l-0.138,0.038c-0.046-0.261-0.118-0.625-0.215-0.993c-0.163-0.668-0.354-1.289-0.356-1.299
		c-0.531-1.562-2.282-2.177-3.66-1.869c-1.434,0.289-2.152,1.397-1.875,2.903c0.291,1.307,1.437,2.546,2.91,2.546
		c0.111,0,0.226-0.007,0.341-0.021c0.027-0.003,0.676-0.077,1.344-0.211c0.354-0.075,0.712-0.163,0.969-0.228l0.087,0.631
		c0.124,1.043-0.283,2.205-1.062,3.032l0.24,0.227l-0.243-0.223c-0.775,0.845-1.876,1.324-2.884,1.28l-0.635-0.028l0.112-0.984
		c0.073-0.656,0.086-1.313,0.087-1.337c0.055-1.691-1.384-2.864-2.812-3.022c-0.77-0.065-1.456,0.119-1.901,0.518
		c-0.522,0.407-0.853,1.042-0.929,1.781c-0.188,1.584,0.882,3.095,2.392,3.368c0,0,0.645,0.106,1.309,0.185
		c0.363,0.045,0.729,0.081,0.99,0.105l-0.101,0.62c-0.17,0.993-0.828,1.94-1.759,2.533l0,0c-0.927,0.58-2.024,0.754-3.007,0.475
		l-0.597-0.179c0.087-0.242,0.206-0.585,0.315-0.938l0.386-1.258c0.41-1.478-0.491-3.096-2.008-3.606
		c-1.452-0.494-2.886,0.209-3.401,1.684c-0.517,1.521,0.233,3.214,1.668,3.775c0,0,0.622,0.254,1.249,0.462l0.929,0.306
		l-0.224,0.591c-0.354,0.934-1.135,1.698-2.139,2.099l0.122,0.307l-0.123-0.307c-0.968,0.392-2.052,0.365-2.971-0.066l-0.563-0.278
		c0.122-0.224,0.291-0.539,0.457-0.873l0.582-1.175c0.667-1.397,0.054-3.146-1.369-3.899c-1.371-0.722-2.958-0.228-3.694,1.15
		c-0.747,1.423-0.256,3.21,1.091,3.983c0,0,0.572,0.337,1.157,0.644l0.865,0.449l-0.307,0.548c-0.491,0.867-1.359,1.505-2.382,1.749
		l0.077,0.321l-0.079-0.32c-1,0.246-2.06,0.071-2.904-0.478l-0.52-0.349c0.149-0.206,0.357-0.496,0.565-0.804l0.73-1.086
		c0.854-1.304,0.481-3.12-0.833-4.049c-1.279-0.901-2.931-0.615-3.841,0.667c-0.923,1.313-0.662,3.149,0.581,4.09
		c0,0,0.526,0.408,1.064,0.783l0.799,0.557l-0.374,0.505c-0.588,0.793-1.524,1.316-2.568,1.436l0.038,0.328l-0.038-0.328
		c-1.023,0.124-2.052-0.186-2.819-0.831l-0.474-0.409c0.174-0.187,0.415-0.45,0.659-0.73l0.857-0.988
		c1.008-1.191,0.859-3.039-0.332-4.12c-1.159-1.049-2.832-0.969-3.89,0.192c-1.076,1.192-1.042,3.047,0.072,4.13
		c0,0,0.472,0.47,0.96,0.909l0.724,0.651l-0.432,0.454c-0.688,0.72-1.691,1.107-2.738,1.106l-0.005,0.33l0.003-0.33
		c-1.022-0.009-2.037-0.454-2.712-1.188l-0.419-0.472c0.199-0.161,0.475-0.389,0.757-0.631l0.981-0.87
		c1.149-1.039,1.243-2.891,0.208-4.129c-1-1.179-2.646-1.323-3.829-0.334c-1.229,1.042-1.463,2.88-0.52,4.101l0.821,1.038
		l0.632,0.739l-0.492,0.391c-0.813,0.62-1.88,0.871-2.927,0.683l0,0.001c-1.084-0.198-2.012-0.797-2.546-1.644l-0.335-0.541
		l0.858-0.473c0.576-0.331,1.133-0.697,1.133-0.697c1.291-0.823,1.696-2.631,0.9-4.034c-0.379-0.644-0.945-1.099-1.604-1.284
		c-0.689-0.169-1.387-0.07-2.021,0.287c-1.4,0.803-1.982,2.561-1.296,3.923l0.611,1.178c0.178,0.321,0.359,0.629,0.491,0.849
		l-0.554,0.289c-0.957,0.454-2.095,0.487-3.043,0.088l-0.127,0.305l0.115-0.31c-0.982-0.364-1.8-1.163-2.183-2.125l-0.213-0.597
		c0.249-0.069,0.597-0.172,0.951-0.297l1.243-0.44c1.611-0.599,2.136-2.38,1.712-3.759c-0.467-1.465-1.819-2.174-3.291-1.723
		c-1.366,0.429-2.534,1.87-2.124,3.532c0.006,0.027,0.151,0.673,0.353,1.3l0.303,0.931l-0.617,0.161
		c-0.487,0.129-1,0.138-1.525,0.024c-0.607-0.127-1.095-0.331-1.49-0.624l-0.197,0.265l0.184-0.274
		c-0.904-0.606-1.528-1.588-1.67-2.631c0-0.003-0.035-0.234-0.056-0.478l-0.013-0.141c0.261-0.004,0.63-0.017,1.006-0.052
		l1.319-0.124c1.691-0.204,2.625-1.809,2.552-3.241c-0.083-1.518-1.15-2.481-2.688-2.429c-1.433,0.081-2.938,1.171-2.974,2.848
		c-0.001,0.027-0.029,0.688,0.005,1.35c0.016,0.361,0.041,0.726,0.061,0.986l-0.639-0.005c-0.491-0.002-0.996-0.135-1.505-0.398
		c-0.515-0.257-0.963-0.619-1.294-1.047l-0.261,0.202l0.251-0.214c-0.721-0.85-1.059-2.028-0.884-3.066l0.128-0.634
		c0.252,0.079,0.605,0.187,0.959,0.283c0.67,0.159,1.318,0.277,1.318,0.277c0.168,0.031,0.333,0.047,0.495,0.047
		c1.406,0,2.55-1.136,2.901-2.381c0.1-0.358,0.128-0.704,0.085-1.008c-0.026-0.346-0.116-0.651-0.273-0.918
		c-0.365-0.571-0.868-0.933-1.539-1.104c-0.737-0.184-1.48-0.142-2.149,0.12c-0.771,0.303-1.354,0.879-1.599,1.577
		c0,0-0.227,0.614-0.429,1.268c-0.108,0.329-0.183,0.648-0.248,0.924l-0.012,0.055l-0.6-0.207c-0.994-0.405-1.835-1.335-2.195-2.426
		c-0.384-1.161-0.273-2.389,0.297-3.287l0.34-0.531c0.21,0.172,0.5,0.406,0.8,0.632l1.103,0.77c0.45,0.277,0.935,0.398,1.415,0.398
		c1.015,0,2.007-0.544,2.6-1.309c0.475-0.618,0.667-1.239,0.562-1.743c-0.02-0.562-0.353-1.12-0.964-1.616
		c-1.113-0.891-2.955-1.107-4.117,0.065l-0.893,1.011c-0.237,0.288-0.463,0.584-0.626,0.8l-0.457-0.441
		c-0.759-0.728-1.155-1.893-1.061-3.117c0.082-0.666,0.249-1.23,0.494-1.668c0.292-0.492,0.666-0.911,1.084-1.214
		c0,0,0.188-0.143,0.387-0.27l0.125-0.076c0.119,0.236,0.29,0.56,0.493,0.89c0.349,0.592,0.708,1.133,0.712,1.139
		c0.571,0.823,1.48,1.182,2.386,1.182c0.585,0,1.169-0.149,1.659-0.421c1.293-0.707,1.672-2.022,0.964-3.352
		c-0.68-1.253-2.306-2.147-3.844-1.47c-0.026,0.011-0.646,0.267-1.218,0.595c-0.324,0.176-0.64,0.359-0.869,0.494l-0.266-0.581
		c-0.425-0.919-0.384-2.08,0.111-3.189c0.258-0.508,0.606-0.97,1-1.331c0.371-0.326,0.847-0.58,1.368-0.733l0.611-0.166l0.196,0.978
		c0.142,0.653,0.302,1.277,0.305,1.288c0.411,1.4,1.714,2.104,2.941,2.104c0.217,0,0.431-0.022,0.638-0.066
		c0.75-0.141,1.353-0.528,1.69-1.083c0.385-0.596,0.506-1.282,0.348-1.987c-0.167-0.746-0.577-1.408-1.153-1.865
		c-0.639-0.505-1.403-0.718-2.161-0.597l-1.301,0.219l-0.982,0.214c-0.008-0.048-0.015-0.098-0.022-0.148l-0.064-0.482
		c-0.131-1.036,0.209-2.158,0.889-2.927l-0.247-0.219l0.258,0.206c0.658-0.822,1.64-1.322,2.692-1.373l0.624-0.026l-0.004,0.997
		l0.026,1.303c0.017,0.753,0.373,1.489,0.977,2.021c0.567,0.498,1.276,0.771,2.054,0.79c0.016,0,0.032,0,0.047,0
		c0.745,0,1.412-0.271,1.873-0.757c0.517-0.497,0.8-1.183,0.798-1.929c-0.003-1.617-1.255-2.983-2.793-3.047l-1.31-0.042
		c-0.366-0.008-0.732-0.01-0.99-0.01l0.026-0.615c0.068-1.054,0.569-2.046,1.341-2.654l-0.205-0.259l0.211,0.254
		c0.834-0.694,1.862-1.015,2.822-0.884l0.625,0.079l-0.149,0.96c-0.099,0.646-0.172,1.301-0.172,1.302
		c-0.166,1.559,0.984,3.014,2.562,3.242c0.149,0.022,0.298,0.033,0.446,0.033c0.605,0,1.18-0.181,1.622-0.517
		c0.554-0.411,0.915-1.021,1.105-1.873c0.139-0.754-0.025-1.514-0.463-2.14c-0.452-0.646-1.165-1.094-1.949-1.227
		c0,0-0.633-0.118-1.284-0.211l-0.959-0.134l0.103-0.612c0.216-1.056,0.651-1.807,1.367-2.364l0,0
		c0.71-0.534,1.613-0.77,2.544-0.667l0.607,0.064l-0.05,0.954c-0.039,0.633-0.104,1.261-0.105,1.267
		c-0.076,0.806,0.173,1.615,0.685,2.222c0.49,0.58,1.178,0.932,1.935,0.989c0.08,0.007,0.16,0.01,0.24,0.01
		c0.704,0,1.412-0.268,1.973-0.753c0.639-0.552,1.032-1.33,1.079-2.138c0.042-0.766-0.217-1.494-0.73-2.053
		c-0.537-0.585-1.311-0.935-2.122-0.959c-0.001,0-0.641-0.021-1.273-0.063c-0.357-0.022-0.708-0.05-0.949-0.071l0.018-0.616
		c0.015-0.93,0.35-1.785,0.947-2.406c0.606-0.612,1.412-0.958,2.335-1l0.61-0.04c0.037,0.234,0.088,0.575,0.127,0.938
		c0.079,0.621,0.12,1.25,0.12,1.255c0.058,0.823,0.443,1.59,1.056,2.104c0.5,0.42,1.12,0.644,1.769,0.644
		c0.098,0,0.196-0.005,0.295-0.016c0.8-0.078,1.568-0.516,2.109-1.201c0.548-0.695,0.798-1.564,0.685-2.384
		c-0.104-0.754-0.493-1.407-1.095-1.839c-0.657-0.472-1.509-0.649-2.337-0.493c-0.002,0.001-0.634,0.111-1.242,0.192
		c-0.355,0.045-0.703,0.079-0.94,0.1l-0.113-0.602c-0.185-0.878-0.082-1.732,0.289-2.405c0.365-0.632,0.961-1.081,1.825-1.371
		l0.565-0.211c0.118,0.19,0.29,0.479,0.455,0.8c0.272,0.527,0.5,1.11,0.502,1.115c0.315,0.816,0.931,1.46,1.688,1.765
		c0.313,0.127,0.636,0.189,0.961,0.189c0.384,0,0.772-0.088,1.15-0.264c0.792-0.38,1.41-1.135,1.696-2.072
		c0.293-0.964,0.2-2.005-0.246-2.779c-0.429-0.772-1.161-1.24-2.009-1.282c-0.704-0.042-1.435,0.2-2.112,0.68l-0.309,0.219
		c-0.191,0.126-0.457,0.283-0.713,0.426c-0.306,0.172-0.612,0.311-0.816,0.4l-0.356-0.494c-0.705-0.858-0.874-1.397-0.891-1.698
		c-0.021-0.401,0.234-0.794,0.725-1.51l-0.006-0.005c0.115-0.134,0.235-0.342,0.326-0.521c0.037,0.004,0.066,0.006,0.11,0.012
		c0.194,0.032,0.462,0.087,0.736,0.161c0.268,0.079,0.53,0.188,0.741,0.279c0.185,0.077,0.296,0.143,0.322,0.158
		c0.576,0.308,1.178,0.468,1.736,0.468c0.149,0,0.295-0.012,0.437-0.034c0.869-0.141,1.521-0.702,1.837-1.582
		c0.335-0.926,0.18-2.149-0.389-3.106c-0.533-0.965-1.471-1.68-2.46-1.867c-0.758-0.119-1.445,0.05-1.979,0.49
		c-0.628,0.517-1.025,1.399-1.06,2.346l-0.033,0.393c-0.02,0.246-0.067,0.524-0.134,0.781c-0.068,0.323-0.179,0.611-0.259,0.797
		c-0.306-0.022-0.638,0.022-0.643,0.022l-0.006,0.002c-0.816,0.048-1.344,0.012-1.764-0.295l-0.194,0.267l0.194-0.267
		c-0.454-0.33-0.833-0.975-1.069-1.816c0,0-0.061-0.216-0.135-0.431l-0.052-0.148l0.087-0.046c0.199-0.105,0.466-0.238,0.739-0.354
		c0.277-0.121,0.565-0.238,0.776-0.318l0.366-0.125c0.864-0.281,1.582-0.891,1.918-1.632c0.295-0.65,0.294-1.364-0.004-2.062
		c-0.35-0.82-1.081-1.481-2.006-1.815c-0.881-0.316-1.801-0.285-2.52,0.087c-0.685,0.338-1.163,0.892-1.383,1.603
		c-0.241,0.776-0.137,1.652,0.285,2.405c0.003,0.006,0.313,0.547,0.567,1.107c0.156,0.32,0.283,0.635,0.365,0.85l-0.528,0.303
		c-0.777,0.479-1.569,0.648-2.348,0.501c-0.8-0.162-1.54-0.654-2.087-1.395l-0.372-0.479c0.178-0.161,0.435-0.391,0.709-0.618
		l0.984-0.804c0.656-0.505,1.083-1.251,1.171-2.046c0.083-0.747-0.141-1.481-0.631-2.07c-0.527-0.628-1.324-1.022-2.188-1.084
		c-0.848-0.055-1.661,0.208-2.244,0.731c-0.573,0.504-0.91,1.198-0.95,1.954c-0.042,0.794,0.251,1.592,0.799,2.187l0.848,0.95
		c0.237,0.275,0.456,0.543,0.607,0.73l-0.447,0.418c-0.681,0.657-1.509,1.006-2.395,1.01l0.001,0.33l-0.002-0.33
		c-0.835,0.004-1.737-0.349-2.435-1.002l-0.443-0.417l1.47-1.679c0.543-0.587,0.834-1.375,0.797-2.163
		c-0.036-0.764-0.372-1.468-0.947-1.98c-0.59-0.526-1.397-0.806-2.213-0.743c-0.814,0.054-1.576,0.427-2.089,1.023
		c-0.502,0.592-0.743,1.341-0.676,2.109c0.068,0.778,0.454,1.514,1.055,2.013l1.684,1.479l-0.387,0.472
		c-0.606,0.741-1.434,1.204-2.33,1.305l0.037,0.328l-0.042-0.327c-0.886,0.107-1.805-0.15-2.584-0.737l-0.485-0.369l1.314-1.817
		c0.475-0.631,0.682-1.438,0.568-2.212c-0.111-0.762-0.515-1.434-1.136-1.893c-0.633-0.467-1.45-0.658-2.248-0.533
		c-0.8,0.13-1.491,0.556-1.946,1.199c-0.448,0.623-0.625,1.385-0.498,2.144c0.129,0.772,0.574,1.479,1.218,1.935l1.813,1.322
		l-0.349,0.5c-0.524,0.777-1.324,1.31-2.254,1.503c-0.916,0.175-1.861-0.018-2.661-0.545l-0.514-0.34l1.195-1.902
		c0.432-0.667,0.578-1.461,0.41-2.233c-0.164-0.756-0.613-1.402-1.266-1.82c-0.668-0.427-1.471-0.562-2.257-0.383
		c-0.781,0.179-1.438,0.646-1.85,1.313c-0.408,0.652-0.537,1.425-0.363,2.177c0.179,0.772,0.651,1.43,1.328,1.851l1.901,1.202
		l-0.319,0.528c-0.485,0.812-1.26,1.394-2.184,1.639c-0.911,0.227-1.872,0.087-2.705-0.399l-0.532-0.31l1.1-1.964
		c0.394-0.685,0.498-1.48,0.292-2.241c-0.203-0.75-0.686-1.375-1.361-1.763c-0.691-0.392-1.497-0.483-2.271-0.266
		c-0.763,0.218-1.39,0.714-1.764,1.397c-0.382,0.685-0.469,1.478-0.246,2.231c0.221,0.746,0.718,1.366,1.398,1.744l1.959,1.109
		l-0.295,0.539c-0.456,0.852-1.208,1.47-2.117,1.741l0.095,0.316l-0.098-0.315c-0.892,0.278-1.861,0.179-2.73-0.279l-0.543-0.285
		l1.022-2.007c0.359-0.692,0.432-1.483,0.203-2.228c-0.231-0.751-0.742-1.364-1.437-1.725c-0.689-0.362-1.483-0.43-2.233-0.193
		c-0.762,0.241-1.382,0.763-1.746,1.472c-0.722,1.44-0.136,3.204,1.304,3.928l2.006,1.037l-0.274,0.552
		c-0.434,0.869-1.166,1.517-2.062,1.824l0,0.001c-0.907,0.303-1.883,0.239-2.748-0.182l-0.555-0.27l0.955-2.043
		c0.695-1.464,0.081-3.217-1.372-3.907c-0.716-0.341-1.524-0.376-2.272-0.103c-0.739,0.27-1.324,0.808-1.647,1.514
		c-0.677,1.459-0.036,3.203,1.428,3.886l2.036,0.967l-0.257,0.558c-0.404,0.891-1.117,1.562-2.006,1.891l0.114,0.31l-0.115-0.31
		c-0.902,0.339-1.881,0.303-2.758-0.096l-0.564-0.255l0.899-2.066c0.65-1.483-0.016-3.218-1.484-3.866
		c-0.721-0.319-1.523-0.337-2.259-0.048c-0.734,0.289-1.308,0.845-1.615,1.564c-0.637,1.476,0.05,3.201,1.532,3.846l2.063,0.907
		l-0.242,0.569c-0.378,0.898-1.074,1.587-1.96,1.94l0.122,0.307l-0.126-0.305c-0.883,0.366-1.864,0.357-2.761-0.023l-0.571-0.241
		l0.848-2.087c0.614-1.496-0.096-3.213-1.58-3.827c-0.725-0.302-1.524-0.301-2.251,0.005c-0.727,0.305-1.288,0.875-1.58,1.604
		c-0.602,1.49,0.127,3.199,1.623,3.81l2.085,0.855l-0.228,0.576c-0.357,0.906-1.039,1.612-1.919,1.987l0.259,0.607
		c1.043-0.445,1.851-1.28,2.274-2.353l0.223-0.564l0.559,0.235c1.06,0.45,2.219,0.459,3.266,0.027l0,0.001
		c0.001,0,0.002-0.001,0.004-0.002c0,0,0,0,0,0l0,0c1.05-0.42,1.874-1.235,2.32-2.295l0.237-0.558l0.552,0.25
		c1.036,0.47,2.195,0.51,3.261,0.113l0,0c1.056-0.391,1.9-1.184,2.377-2.235l0.251-0.547l0.544,0.265
		c1.021,0.496,2.174,0.576,3.249,0.213l-0.105-0.312l0.107,0.312c1.061-0.364,1.926-1.13,2.438-2.155l0.269-0.54l0.532,0.279
		c1.024,0.54,2.171,0.655,3.23,0.327l0,0c0,0,0.001,0,0.001-0.001c0,0,0.001,0,0.002,0l0,0c1.077-0.324,1.967-1.054,2.505-2.058
		l0.287-0.523l0.519,0.303c0.984,0.572,2.119,0.738,3.2,0.469l-0.08-0.32l0.084,0.319c1.092-0.29,2.009-0.979,2.582-1.938
		l0.309-0.509l0.499,0.328c0.945,0.622,2.063,0.849,3.15,0.643l-0.062-0.324l0.067,0.323c1.101-0.228,2.049-0.86,2.667-1.777
		l0.336-0.48l0.471,0.358c0.916,0.69,1.999,0.995,3.06,0.865l0,0.001c0.002,0,0.003-0.001,0.005-0.001h0v0
		c1.066-0.121,2.047-0.668,2.762-1.541l0.368-0.447l0.421,0.396c0.821,0.769,1.851,1.182,2.891,1.181v0l0,0c0,0,0,0,0,0l0,0
		c1.058-0.004,2.043-0.418,2.845-1.191l0.402-0.376l0.332,0.427c0.641,0.867,1.524,1.451,2.486,1.644l0.065-0.323l-0.061,0.324
		c0.947,0.177,1.896-0.021,2.814-0.586l0.408-0.244l0.015,0.043c0.067,0.195,0.123,0.392,0.124,0.394
		c0.279,0.997,0.734,1.748,1.316,2.171l0,0c0.584,0.426,1.26,0.477,2.225,0.418l0.178-0.01c0.017-0.001,0.035-0.001,0.053-0.001
		c-0.011,0.018-0.021,0.035-0.031,0.051l-0.094,0.137c-0.506,0.74-0.873,1.274-0.839,1.919l0.33-0.018l-0.33,0.019
		c0.033,0.58,0.383,1.28,1.031,2.069l0.252,0.336l-0.403,0.14c-1.008,0.339-1.744,0.901-2.187,1.671l0.286,0.164l-0.289-0.16
		c-0.45,0.812-0.577,1.829-0.36,2.855l0.098,0.525l-0.528,0.027c-1.091,0.05-2.051,0.464-2.776,1.199l0.235,0.231l-0.238-0.229
		c-0.711,0.742-1.113,1.756-1.13,2.854l-0.01,0.562l-0.564-0.06c-1.101-0.124-2.173,0.159-3.018,0.8l0.199,0.263l-0.203-0.261
		c-0.847,0.66-1.358,1.535-1.61,2.765l-0.109,0.641l-0.005-0.001l-0.001,0.004l-0.64-0.081c-1.136-0.155-2.348,0.217-3.324,1.026
		l0,0c-0.001,0.001-0.001,0.001-0.002,0.002c-0.001,0.001-0.003,0.002-0.005,0.003l0.001,0.001
		c-0.912,0.723-1.505,1.889-1.585,3.127l-0.032,0.656l-0.011,0l0,0.011l-0.656,0.027c-1.238,0.06-2.39,0.647-3.167,1.609
		l-0.001-0.001c-0.002,0.002-0.003,0.004-0.005,0.006c-0.002,0.002-0.004,0.004-0.006,0.006l0.001,0.001
		c-0.807,0.92-1.196,2.202-1.04,3.437l0.064,0.483c0.009,0.068,0.019,0.137,0.03,0.202l-0.006,0.001l0.001,0.006l-0.66,0.18
		c-0.62,0.182-1.181,0.483-1.629,0.877c-0.46,0.421-0.858,0.95-1.153,1.53l0.294,0.149l-0.301-0.135
		c-0.576,1.285-0.617,2.649-0.111,3.743l0.296,0.647l0,0l0.001,0.001l-0.19,0.117c-0.222,0.143-0.428,0.298-0.428,0.298
		c-0.486,0.351-0.921,0.838-1.264,1.415c-0.292,0.522-0.486,1.17-0.579,1.925l0.328,0.04l-0.329-0.025
		c-0.111,1.421,0.361,2.786,1.262,3.65l0.52,0.502l-0.011,0.015l0.012,0.01l-0.385,0.611c-0.674,1.061-0.811,2.497-0.365,3.845
		c0.425,1.288,1.387,2.346,2.589,2.836l0.686,0.238l-0.001,0.004l0.007,0.002l-0.145,0.718c-0.208,1.23,0.184,2.608,1.021,3.602
		l-0.001,0.001c0.001,0.002,0.003,0.003,0.004,0.004c0.002,0.002,0.003,0.005,0.005,0.007l0.001-0.001
		c0.391,0.501,0.913,0.924,1.507,1.22c0.599,0.311,1.206,0.469,1.801,0.471l0.698,0.006l0.019,0.199
		c0.022,0.263,0.06,0.514,0.06,0.514c0.166,1.216,0.893,2.365,1.943,3.076l0,0.001c0.001,0.001,0.002,0.001,0.003,0.002
		c0.003,0.002,0.006,0.006,0.009,0.008l0.001-0.002c0.472,0.347,1.039,0.588,1.734,0.733c0.626,0.133,1.242,0.123,1.828-0.032
		l0.663-0.174l0.236,0.661c0.453,1.139,1.41,2.074,2.559,2.505l0,0.001c0.002,0.001,0.005,0.001,0.007,0.002
		c0.002,0.001,0.004,0.002,0.006,0.003l0-0.001c1.117,0.463,2.449,0.425,3.579-0.11l0.603-0.315l0.004,0.006l0.001-0.001
		l0.354,0.572c0.635,1.006,1.724,1.714,2.99,1.943l0.059-0.324l-0.058,0.325c1.229,0.217,2.483-0.077,3.447-0.812l0.521-0.413
		l0.445,0.502c0.812,0.882,1.976,1.394,3.194,1.405v0c0.023,0,0.047,0,0.071,0c1.209,0,2.355-0.475,3.154-1.311l0.451-0.474
		l0.5,0.433c0.91,0.764,2.119,1.123,3.324,0.984v0c1.225-0.141,2.327-0.76,3.023-1.699l0.389-0.524l0.548,0.368
		c1,0.65,2.249,0.857,3.423,0.568l0,0.001c1.201-0.287,2.222-1.04,2.804-2.068l0.321-0.573l0.599,0.296
		c1.088,0.511,2.365,0.542,3.503,0.085l0,0c1.175-0.469,2.09-1.372,2.511-2.477l0.235-0.618l0.001,0l0.002-0.005l0.651,0.188
		c1.159,0.328,2.448,0.127,3.535-0.55l-0.175-0.28l0.177,0.278c1.104-0.701,1.854-1.787,2.058-2.978l0.116-0.679l0.012,0.001
		l0.001-0.01l0.681,0.03c1.23,0.051,2.49-0.507,3.395-1.492l0.001,0c0.923-0.98,1.385-2.312,1.236-3.57l-0.1-0.717l0.214-0.06
		c0.26-0.072,0.505-0.165,0.504-0.165c0.593-0.211,1.151-0.559,1.63-1.021c0.491-0.527,0.86-1.1,1.097-1.701l-0.308-0.12
		l0.312,0.106c0.254-0.749,0.358-1.406,0.32-2.016c-0.052-0.672-0.229-1.309-0.536-1.876l-0.31-0.435l0.459-0.258
		c0.965-0.507,1.651-1.258,1.984-2.172c0.32-0.875,0.273-1.868-0.134-2.874l-0.169-0.416c-0.005-0.012-0.01-0.023-0.015-0.035
		l0.489-0.087c0.49-0.086,0.955-0.228,1.397-0.43c0.388-0.202,0.737-0.468,1.04-0.788l-0.24-0.227l0.249,0.217
		c0.138-0.158,0.258-0.343,0.35-0.534c0.113-0.183,0.206-0.389,0.276-0.62c0.116-0.409,0.182-0.876,0.194-1.391l0.009-0.454
		l0.407,0.138c0.435,0.159,0.874,0.243,1.37,0.265c0.431,0.031,0.848-0.033,1.261-0.204l0.001,0.002
		c0.005-0.001,0.008-0.005,0.013-0.006c0.005-0.002,0.01-0.002,0.016-0.005l-0.001-0.003c0.405-0.137,0.761-0.375,1.061-0.71
		c0.338-0.302,0.633-0.693,0.873-1.161l0.21-0.397c0.003-0.005,0.006-0.01,0.008-0.016l0.371,0.334
		c0.838,0.751,1.727,1.114,2.602,1.119v0.001c0.002,0,0.005-0.001,0.007-0.001c0.002,0,0.004,0.001,0.007,0.001l0-0.001
		c1.07-0.005,2.166-0.416,2.972-1.176l0.442-0.415l0.409,0.451c0.771,0.856,1.838,1.355,3.003,1.406l0.014-0.33l-0.012,0.33
		c1.172,0.042,2.301-0.373,3.146-1.17l0.457-0.432l0.002,0.002l0.004-0.004l0.448,0.455c0.809,0.797,1.913,1.246,3.05,1.246
		c0.05,0,0.1-0.001,0.149-0.002v-0.001c1.193-0.021,2.377-0.558,3.173-1.443l0.438-0.502l0.006,0.005l0.004-0.004l0.54,0.413
		c1.025,0.725,2.321,0.974,3.552,0.688l0,0.001c0.004-0.001,0.007-0.002,0.01-0.003c0,0,0.001,0,0.002,0l0,0
		c0.629-0.122,1.245-0.396,1.776-0.789c0.569-0.408,0.985-0.869,1.273-1.412l0.34-0.655l0.213,0.073
		c0.265,0.098,0.533,0.15,0.534,0.15c0.596,0.143,1.277,0.153,1.993,0.024c0.654-0.175,1.332-0.5,1.958-0.941L214.178,168.327z
		 M171.784,177.365l-0.821,0.227c-0.612,0.177-1.232,0.4-1.237,0.402c-0.618,0.236-1.296,0.216-1.86-0.056
		c-0.514-0.246-0.881-0.674-1.062-1.23c-0.19-0.63-0.096-1.362,0.252-1.999c0.292-0.487,0.808-1.107,1.614-1.301
		c0.182-0.047,0.36-0.07,0.535-0.07c0.36,0,0.703,0.099,1.013,0.294c0.531,0.337,0.926,0.944,1.056,1.628l0.074,0.382
		c0.043,0.235,0.125,0.558,0.217,0.873c0.089,0.315,0.184,0.619,0.255,0.842C171.808,177.359,171.796,177.362,171.784,177.365z
		 M169.607,183.401l-0.027,0.016c-0.21,0.122-0.489,0.289-0.78,0.495c-0.556,0.378-1.1,0.7-1.1,0.7
		c-1.091,0.624-2.441,0.043-3.111-0.873c-0.338-0.479-0.469-0.767-0.306-1.523c0.135-0.656,0.544-1.253,1.096-1.596
		c0.341-0.211,0.708-0.318,1.083-0.318c0.169,0,0.34,0.021,0.51,0.065c0.609,0.156,1.147,0.579,1.479,1.167l0.653,1.1
		c0.18,0.285,0.367,0.561,0.504,0.761l-0.004,0.002L169.607,183.401z M165.897,190.651c-0.637,0.127-1.279,0.2-1.29,0.202
		c-1.256,0.154-2.278-0.896-2.525-2c-0.212-1.151,0.271-1.906,1.366-2.127c0.188-0.042,0.386-0.063,0.585-0.063
		c0.962,0,1.971,0.493,2.31,1.49c0.001,0.003,0.186,0.605,0.345,1.258c0.099,0.373,0.171,0.753,0.215,1.003
		C166.65,190.479,166.269,190.572,165.897,190.651z M102.901,190.806c0.055-0.234,0.125-0.534,0.228-0.848
		c0.197-0.641,0.418-1.237,0.421-1.245c0.183-0.521,0.627-0.954,1.219-1.186c0.539-0.213,1.144-0.245,1.747-0.096
		c0.506,0.13,0.87,0.39,1.138,0.809c0.099,0.169,0.159,0.379,0.18,0.644c0.032,0.233,0.01,0.489-0.064,0.759
		c-0.311,1.102-1.391,2.093-2.64,1.864c-0.003-0.001-0.633-0.116-1.275-0.269c-0.365-0.1-0.738-0.214-0.984-0.292L102.901,190.806z
		 M101.096,182.914l0.429-0.507l0.428-0.463c0.899-0.908,2.35-0.72,3.232-0.015c0.319,0.259,0.703,0.664,0.725,1.179
		c0.092,0.46-0.184,0.942-0.431,1.264c-0.693,0.896-2.06,1.42-3.143,0.754l-1.06-0.74c-0.308-0.231-0.617-0.481-0.821-0.649
		C100.613,183.524,100.854,183.21,101.096,182.914z M102.008,175.646c0.54-0.31,1.141-0.559,1.153-0.564
		c1.196-0.522,2.469,0.188,3.005,1.176c0.544,1.022,0.29,1.919-0.701,2.461c-0.994,0.55-2.457,0.491-3.181-0.554
		c0,0-0.35-0.527-0.693-1.108c-0.202-0.327-0.379-0.666-0.493-0.893C101.324,176.03,101.667,175.831,102.008,175.646z
		 M106.552,168.984c0.565-0.093,1.151,0.073,1.644,0.463c0.458,0.363,0.785,0.893,0.919,1.492c0.149,0.666-0.058,1.175-0.263,1.491
		c-0.248,0.407-0.681,0.679-1.261,0.787c-1.068,0.229-2.446-0.312-2.813-1.564c0-0.002-0.158-0.613-0.296-1.248l-0.202-1.01
		L106.552,168.984z M124.434,150.193c0.24-0.022,0.568-0.055,0.902-0.097c0.625-0.083,1.271-0.196,1.276-0.197
		c0.657-0.125,1.324,0.013,1.833,0.38c0.46,0.33,0.746,0.812,0.827,1.393c0.088,0.643-0.112,1.33-0.549,1.885
		c-0.43,0.545-1.033,0.893-1.657,0.954c-0.585,0.057-1.129-0.104-1.573-0.478c-0.477-0.399-0.776-1-0.822-1.644
		c0,0-0.042-0.65-0.123-1.286c-0.036-0.335-0.084-0.665-0.121-0.905l0.009-0.001L124.434,150.193z M127.52,144.696
		c0.209-0.094,0.478-0.222,0.744-0.371c0.271-0.15,0.553-0.317,0.764-0.457l0.318-0.225c0.555-0.394,1.152-0.571,1.697-0.561
		c0.615,0.031,1.149,0.375,1.467,0.949c0.359,0.623,0.43,1.47,0.189,2.262c-0.229,0.75-0.733,1.374-1.346,1.668
		c-0.526,0.243-1.074,0.265-1.583,0.059c-0.58-0.233-1.073-0.753-1.32-1.391c-0.01-0.025-0.242-0.621-0.53-1.179
		c-0.143-0.279-0.293-0.538-0.412-0.734l0.021-0.008L127.52,144.696z M127.43,138.572c0.073-0.276,0.128-0.598,0.151-0.881
		l0.033-0.405c0.029-0.776,0.336-1.478,0.82-1.876c0.391-0.321,0.882-0.44,1.448-0.35c0.791,0.15,1.555,0.738,2,1.545
		c0.478,0.804,0.611,1.806,0.34,2.555c-0.296,0.825-0.882,1.083-1.322,1.154c-0.529,0.088-1.153-0.042-1.739-0.354
		c0,0-0.145-0.09-0.392-0.193c-0.229-0.099-0.518-0.218-0.818-0.307c-0.27-0.074-0.53-0.128-0.738-0.165
		C127.29,139.094,127.375,138.84,127.43,138.572z M63.485,147.687l-0.003-0.001l-0.001,0.004l-2.077-0.853
		c-1.161-0.474-1.727-1.797-1.261-2.952c0.226-0.564,0.66-1.005,1.223-1.241c0.283-0.119,0.58-0.179,0.876-0.179
		c0.293,0,0.587,0.059,0.867,0.175c1.15,0.477,1.698,1.808,1.222,2.969L63.485,147.687z M69.892,145.087l-0.003-0.001l-0.001,0.003
		l-2.056-0.904c-1.15-0.501-1.685-1.837-1.19-2.98c0.238-0.558,0.682-0.987,1.25-1.21c0.271-0.106,0.552-0.16,0.833-0.16
		c0.312,0,0.624,0.065,0.917,0.196c1.137,0.502,1.651,1.847,1.146,2.998L69.892,145.087z M76.359,142.659l-0.002-0.001l-0.001,0.003
		l-2.031-0.964c-1.136-0.53-1.634-1.882-1.11-3.013c0.25-0.546,0.703-0.962,1.274-1.17c0.258-0.094,0.526-0.142,0.792-0.142
		c0.333,0,0.663,0.074,0.972,0.22c1.123,0.534,1.598,1.894,1.058,3.03L76.359,142.659z M82.888,140.431l-0.003-0.002l-0.001,0.002
		l-1.999-1.035c-1.119-0.562-1.573-1.929-1.016-3.042c0.282-0.548,0.764-0.953,1.356-1.141c0.228-0.072,0.46-0.107,0.691-0.107
		c0.358,0,0.713,0.086,1.038,0.257c0.538,0.279,0.933,0.753,1.111,1.333c0.178,0.578,0.122,1.192-0.159,1.732L82.888,140.431z
		 M89.483,138.441l-0.003-0.002l-0.002,0.004l-1.954-1.106c-0.53-0.295-0.917-0.777-1.088-1.356
		c-0.172-0.582-0.105-1.194,0.191-1.726c0.29-0.528,0.775-0.912,1.367-1.081c0.213-0.061,0.43-0.09,0.645-0.09
		c0.39,0,0.773,0.099,1.119,0.294c0.521,0.299,0.894,0.782,1.051,1.361c0.16,0.591,0.079,1.208-0.229,1.743L89.483,138.441z
		 M96.143,136.748l-0.005-0.003l-0.004,0.006l-1.892-1.196c-0.528-0.328-0.896-0.84-1.035-1.44c-0.134-0.579-0.035-1.175,0.28-1.68
		c0.319-0.517,0.83-0.878,1.437-1.018c0.177-0.04,0.355-0.061,0.532-0.061c0.433,0,0.854,0.121,1.223,0.356
		c0.503,0.321,0.85,0.82,0.976,1.403c0.13,0.6,0.017,1.216-0.321,1.738L96.143,136.748z M102.859,135.447l-0.002-0.002l-0.002,0.003
		l-1.811-1.315c-0.503-0.355-0.849-0.905-0.95-1.506c-0.098-0.584,0.038-1.17,0.384-1.651c0.353-0.499,0.891-0.829,1.514-0.93
		c0.126-0.021,0.253-0.031,0.379-0.031c0.495,0,0.979,0.154,1.372,0.443c0.479,0.354,0.789,0.871,0.875,1.457
		c0.088,0.602-0.074,1.229-0.445,1.723L102.859,135.447z M109.613,134.663l-0.006-0.006l-0.006,0.007l-1.68-1.469
		c-0.471-0.391-0.771-0.962-0.824-1.566c-0.052-0.592,0.133-1.168,0.52-1.623c0.398-0.462,0.993-0.751,1.631-0.794
		c0.055-0.003,0.109-0.005,0.163-0.005c0.584,0,1.148,0.208,1.568,0.582c0.441,0.395,0.7,0.934,0.727,1.52
		c0.029,0.611-0.198,1.226-0.626,1.688L109.613,134.663z M116.308,134.657l-0.002-0.003l-0.004,0.003
		c-0.153-0.19-0.369-0.453-0.594-0.713l-0.855-0.958c-0.432-0.469-0.661-1.091-0.628-1.709c0.03-0.577,0.288-1.107,0.729-1.494
		c0.411-0.369,0.977-0.573,1.574-0.573c0.062,0,0.124,0.002,0.186,0.006c0.687,0.049,1.317,0.358,1.728,0.849
		c0.379,0.455,0.546,1,0.482,1.574c-0.068,0.618-0.403,1.2-0.925,1.602l-0.994,0.812
		C116.745,134.267,116.491,134.492,116.308,134.657z M122.638,135.913l-0.008,0.005c-0.086-0.22-0.207-0.511-0.347-0.797
		c-0.263-0.581-0.579-1.133-0.591-1.152c-0.333-0.594-0.416-1.28-0.229-1.885c0.166-0.533,0.526-0.95,1.05-1.209
		c0.3-0.154,0.648-0.232,1.015-0.232c0.32,0,0.654,0.059,0.984,0.178c0.753,0.271,1.345,0.801,1.622,1.453
		c0.224,0.523,0.227,1.053,0.01,1.531c-0.261,0.574-0.83,1.052-1.524,1.278l-0.384,0.13c-0.229,0.088-0.528,0.209-0.812,0.333
		c-0.287,0.122-0.573,0.264-0.784,0.376L122.638,135.913z M119.781,155.892l0.049-0.922l0.006,0.001l0-0.005
		c0.243,0.021,0.584,0.049,0.925,0.069c0.643,0.044,1.294,0.065,1.295,0.065c0.635,0.019,1.238,0.29,1.656,0.745
		c0.392,0.426,0.589,0.983,0.557,1.568c-0.036,0.63-0.347,1.241-0.851,1.677c-0.491,0.425-1.121,0.644-1.728,0.584
		c-0.583-0.044-1.109-0.312-1.484-0.757c-0.397-0.472-0.591-1.104-0.532-1.73C119.674,157.186,119.742,156.542,119.781,155.892z
		 M114.126,161.376c0-0.002,0.071-0.642,0.168-1.272l0.151-0.973l0.972,0.137c0.635,0.09,1.254,0.205,1.261,0.206
		c0.617,0.104,1.172,0.453,1.523,0.955c0.335,0.48,0.461,1.063,0.357,1.63c-0.151,0.68-0.43,1.162-0.854,1.478
		c-0.413,0.313-0.987,0.44-1.577,0.358C114.896,163.715,113.998,162.585,114.126,161.376z M108.952,163.781
		c0.254,0.001,0.625,0.003,0.99,0.011l1.304,0.042c1.187,0.048,2.154,1.12,2.157,2.389c0.002,0.573-0.204,1.075-0.606,1.462
		c-0.353,0.372-0.882,0.562-1.439,0.562c-0.618-0.015-1.182-0.231-1.631-0.626c-0.466-0.409-0.74-0.97-0.752-1.538l-0.026-1.295
		L108.952,163.781z M107.535,195.739c-0.033-0.633-0.005-1.284-0.005-1.298c0.028-1.301,1.218-2.146,2.347-2.209
		c0.037-0.002,0.074-0.003,0.111-0.003c1.089,0,1.824,0.699,1.885,1.807c0.057,1.106-0.681,2.396-1.963,2.552l-1.31,0.123
		c-0.376,0.034-0.751,0.046-1.002,0.049C107.579,196.503,107.552,196.117,107.535,195.739z M113.363,199.982
		c-0.191-0.597-0.335-1.234-0.338-1.248c-0.314-1.274,0.627-2.421,1.677-2.751c0.229-0.07,0.454-0.104,0.668-0.104
		c0.831,0,1.516,0.511,1.797,1.395c0.326,1.06-0.083,2.486-1.307,2.941l-1.238,0.438c-0.351,0.124-0.706,0.229-0.945,0.295
		L113.363,199.982z M120.479,203.61c-0.129-0.215-0.315-0.532-0.491-0.85l-0.604-1.166c-0.593-1.177,0.076-2.499,1.034-3.049
		c0.332-0.187,0.687-0.281,1.042-0.281c0.162,0,0.324,0.02,0.484,0.059c0.484,0.137,0.912,0.485,1.202,0.978
		c0.543,0.957,0.436,2.433-0.688,3.149c-0.003,0.002-0.544,0.357-1.098,0.676L120.479,203.61z M127.642,204.874l-1.449-1.772
		c-0.729-0.941-0.537-2.373,0.425-3.188c0.405-0.339,0.873-0.506,1.334-0.506c0.574,0,1.139,0.258,1.565,0.761
		c0.809,0.967,0.743,2.409-0.144,3.211l-0.976,0.865C128.12,204.482,127.836,204.716,127.642,204.874z M134.832,204.992
		l-0.737-0.662c-0.474-0.428-0.934-0.885-0.938-0.889c-0.866-0.842-0.886-2.285-0.046-3.216c0.434-0.476,0.987-0.716,1.545-0.716
		c0.494,0,0.992,0.188,1.413,0.569c0.93,0.845,1.052,2.282,0.274,3.201l-0.854,0.984
		C135.248,204.541,135.002,204.81,134.832,204.992z M141.956,204.197l-0.813-0.567c-0.523-0.365-1.035-0.762-1.04-0.766
		c-0.965-0.731-1.164-2.161-0.443-3.186c0.427-0.601,1.046-0.916,1.688-0.916c0.417,0,0.844,0.133,1.233,0.407
		c1.026,0.726,1.323,2.139,0.664,3.145l-0.728,1.082C142.313,203.7,142.102,203.996,141.956,204.197z M148.937,202.521l-0.882-0.457
		c-0.567-0.298-1.125-0.626-1.13-0.629c-1.046-0.601-1.423-1.994-0.84-3.104c0.391-0.73,1.069-1.133,1.798-1.133
		c0.332,0,0.674,0.084,1.005,0.258c1.113,0.589,1.598,1.948,1.083,3.026l-0.579,1.171
		C149.229,201.982,149.056,202.304,148.937,202.521z M155.971,198.918c-0.11,0.354-0.231,0.702-0.315,0.938l-0.953-0.314
		c-0.604-0.2-1.203-0.444-1.211-0.448c-1.115-0.436-1.693-1.759-1.289-2.946c0.31-0.884,1.021-1.397,1.85-1.397
		c0.231,0,0.473,0.04,0.716,0.123c1.039,0.35,1.939,1.521,1.586,2.797L155.971,198.918z M161.96,194.933l-0.116,1.016
		c-0.256-0.022-0.633-0.06-1.004-0.105c-0.648-0.076-1.275-0.18-1.275-0.18c-1.308-0.236-1.978-1.555-1.848-2.646
		c0.059-0.571,0.293-1.032,0.695-1.347c0.32-0.285,0.842-0.421,1.413-0.367c1.123,0.124,2.26,1.034,2.218,2.349
		C162.043,193.658,162.03,194.306,161.96,194.933z M176.253,170.601c0,0-0.167,0.65-0.275,1.263
		c-0.058,0.309-0.102,0.611-0.133,0.85v0.002c-0.223-0.047-0.521-0.107-0.83-0.157c-0.294-0.055-0.622-0.094-0.897-0.106
		l-0.394-0.021c-0.711-0.037-1.377-0.349-1.781-0.833c-0.342-0.409-0.484-0.923-0.411-1.496c0.063-0.649,0.474-1.293,1.15-1.809
		c0.487-0.356,1.113-0.555,1.697-0.555c0.13,0,0.259,0.01,0.383,0.03c0.581,0.129,1.035,0.449,1.313,0.927
		C176.388,169.23,176.455,169.938,176.253,170.601z M181.529,170.447c-0.01-0.007-0.021-0.015-0.03-0.022l-0.678-0.497
		c-0.513-0.363-1.082-0.714-1.092-0.72c-0.59-0.335-1.028-0.896-1.172-1.501c-0.127-0.537-0.021-1.081,0.299-1.561
		c0.403-0.552,1.093-0.965,1.784-1.076c0.151-0.019,0.299-0.026,0.442-0.026c0.62,0,1.166,0.163,1.564,0.472
		c0.469,0.373,0.742,0.872,0.791,1.442c0.053,0.621-0.166,1.258-0.59,1.735c0,0-0.118,0.118-0.286,0.336l-0.533,0.705
		C181.838,169.996,181.659,170.256,181.529,170.447z M188.116,170.369l-0.002-0.002l-0.001,0.001l-1.515-1.663
		c-0.419-0.452-0.636-1.039-0.611-1.651c0.024-0.598,0.28-1.149,0.721-1.554c0.427-0.391,0.971-0.602,1.543-0.602
		c0.037,0,0.075,0.001,0.112,0.003c0.602,0.028,1.153,0.289,1.553,0.732c0.834,0.926,0.77,2.365-0.145,3.208L188.116,170.369z
		 M195.114,170.631l-1.563-1.64c-0.842-0.905-0.795-2.346,0.104-3.21c0.422-0.404,0.959-0.625,1.517-0.625c0.012,0,0.024,0,0.036,0
		c0.568,0.01,1.104,0.249,1.509,0.672c0.867,0.908,0.874,2.351,0.019,3.213L195.114,170.631z M202.269,170.403l-0.767-0.611
		l-0.985-0.86c-0.897-0.797-0.978-2.238-0.182-3.208c0.438-0.518,1.001-0.782,1.569-0.782c0.441,0,0.885,0.159,1.276,0.483
		c0.853,0.712,1.29,2.13,0.515,3.179l-0.788,1.036L202.269,170.403z M209.937,167.788c-0.132,0.373-0.292,0.728-0.401,0.956
		c-0.245-0.09-0.62-0.232-0.977-0.382c-0.588-0.25-1.151-0.569-1.165-0.576c-1.132-0.603-1.35-2.049-0.913-3.087
		c0.357-0.751,0.837-1.128,1.431-1.128c0.245,0,0.509,0.063,0.793,0.192c1.035,0.452,1.966,1.586,1.654,2.785
		C210.357,166.553,210.179,167.152,209.937,167.788z"/>
	<polygon style="fill:#FFB600;" points="96.457,24.154 96.45,24.158 96.457,24.162 	"/>
	<path style="fill:#FFB600;" d="M128.622,0.734L99.691,17.435c0.896-0.517,1.949-0.764,3.111-0.724c0.016,0,0.032,0.001,0.048,0.002
		c0.088,0.004,0.176,0.007,0.265,0.014c1.376,0.084,2.89,0.555,4.469,1.461l-0.028,9.892c-1.242-0.712-2.433-0.144-2.437,1.277V30.1
		l-0.274,95.028v0.003l28.932-16.701l0.273-95.721l2.312-1.335l0.028-9.89C133.359-0.254,130.609-0.413,128.622,0.734z"/>
	<path style="fill:#D19309;" d="M107.555,28.08c-1.242-0.712-2.433-0.144-2.437,1.277v0.742l-0.274,95.031l-8.668-4.971
		l0.274-95.031v-0.713c0.02-6.873,5.111-9.682,11.133-6.228L107.555,28.08z"/>
	<polygon style="fill:#FFB600;" points="29.865,81.07 29.859,81.074 29.865,81.078 	"/>
	<path style="fill:#FFB600;" d="M62.031,57.65L33.099,74.351c0.896-0.517,1.949-0.764,3.111-0.724c0.016,0,0.032,0.001,0.048,0.002
		c0.088,0.004,0.176,0.007,0.265,0.014c1.376,0.084,2.89,0.555,4.469,1.461l-0.028,9.892c-1.242-0.712-2.433-0.144-2.437,1.277
		v0.742l-0.274,95.028v0.003l28.932-16.701l0.273-95.721l2.312-1.335l0.028-9.89C66.767,56.662,64.017,56.503,62.031,57.65z"/>
	<path style="fill:#D19309;" d="M40.963,84.996c-1.242-0.712-2.433-0.144-2.437,1.277v0.742l-0.274,95.031l-8.668-4.971
		l0.274-95.031v-0.713c0.02-6.873,5.111-9.682,11.133-6.228L40.963,84.996z"/>
	<polygon style="fill:#6B594C;" points="79.586,182.478 79.515,188.038 48.678,205.885 48.749,200.325 	"/>
	<polygon style="fill:#7B6651;" points="48.749,200.325 48.678,205.885 0,177.666 0.071,172.106 	"/>
	<polygon style="fill:#9B8167;" points="69.716,183.265 62.971,187.143 59.576,185.162 59.576,184.827 49.77,190.502 17.2,171.621 
		29.082,164.744 29.072,155.321 0.071,172.106 48.749,200.325 79.586,182.478 69.733,176.766 	"/>
	<polygon style="fill:#6B594C;" points="29.725,178.882 29.725,178.882 29.097,178.518 29.082,164.744 17.2,171.621 	"/>
	<polygon style="fill:#9B8167;" points="183.269,122.535 134.591,94.316 165.428,76.468 214.106,104.688 	"/>
	<polygon style="fill:#6B594C;" points="214.106,104.688 214.035,110.247 183.198,128.095 183.269,122.535 	"/>
	<polygon style="fill:#7B6651;" points="183.269,122.535 183.198,128.095 134.52,99.876 134.591,94.316 	"/>
	<polygon style="fill:#4F4F4F;" points="202.919,106.977 185.606,116.997 180.966,114.308 198.279,104.287 	"/>
	<polygon style="fill:#2F2F2F;" points="202.919,106.977 202.917,107.501 185.603,117.521 185.606,116.997 	"/>
	<polygon style="fill:#3B3B3B;" points="185.606,116.997 185.603,117.521 180.964,114.832 180.966,114.308 	"/>
	<polygon style="fill:#4F4F4F;" points="33.844,161.539 16.529,171.56 11.889,168.87 29.204,158.849 	"/>
	<polygon style="fill:#2F2F2F;" points="33.844,161.539 33.842,162.063 16.527,172.084 16.529,171.56 	"/>
	<polygon style="fill:#3B3B3B;" points="16.529,171.56 16.527,172.084 11.887,169.394 11.889,168.87 	"/>
	<polygon style="fill:#484848;" points="26.042,165.299 22.647,163.318 22.617,136.019 26.012,138 	"/>
	<polygon style="fill:#4F4F4F;" points="30.549,130.174 27.154,128.193 147.449,59.024 150.844,61.005 	"/>
	<polygon style="fill:#545454;" points="27.154,128.193 25.617,130.844 24.109,133.446 22.617,136.019 26.012,138 27.504,135.427 
		29.012,132.825 30.549,130.174 	"/>
	<polygon style="fill:#3F3F3F;" points="150.844,61.005 152.34,61.863 153.852,62.728 155.392,63.608 155.421,90.906 
		148.677,94.784 148.65,70.123 32.852,136.597 32.786,161.42 26.042,165.299 26.012,138 27.504,135.427 29.012,132.825 
		30.549,130.174 	"/>
	<polygon style="fill:#E0D4D4;" points="183.405,114.19 151.719,95.701 151.689,68.035 183.375,86.524 	"/>
	<polygon style="fill:#E0D4D4;" points="143.817,107.797 112.13,89.308 112.129,87.594 143.815,106.083 	"/>
	<polygon style="fill:#F9F9F9;" points="143.815,106.083 112.129,87.594 150.371,65.605 182.057,84.094 	"/>
	<polygon style="fill:#E0D4D4;" points="104.284,130.529 72.598,112.04 72.596,110.325 104.282,128.814 	"/>
	<polygon style="fill:#F9F9F9;" points="104.282,128.814 72.596,110.325 109.634,89.028 141.321,107.517 	"/>
	<polygon style="fill:#F2EDED;" points="60.968,156.907 29.282,138.418 31.632,134.365 63.318,152.854 	"/>
	<polygon style="fill:#E0D4D4;" points="63.318,152.854 31.632,134.365 31.631,133.879 63.317,152.368 	"/>
	<polygon style="fill:#F9F9F9;" points="70.102,111.759 32.054,133.636 31.631,133.88 63.317,152.368 63.741,152.125 
		101.788,130.248 	"/>
	<polygon style="fill:#E0D4D4;" points="60.968,156.907 29.282,138.418 29.168,138.616 29.054,138.549 29.097,178.518 
		49.77,190.502 60.769,184.136 60.741,157.3 	"/>
	<polygon style="fill:#4F4F4F;" points="70.343,183.249 53.028,193.271 48.388,190.581 65.703,180.56 	"/>
	<polygon style="fill:#2F2F2F;" points="70.343,183.249 70.341,183.774 53.026,193.795 53.028,193.271 	"/>
	<polygon style="fill:#3B3B3B;" points="53.028,193.271 53.026,193.795 48.386,191.105 48.388,190.581 	"/>
	<polygon style="fill:#484848;" points="185.606,116.628 182.211,114.647 182.185,89.983 185.58,91.964 	"/>
	<polygon style="fill:#484848;" points="62.971,187.143 59.576,185.162 59.547,157.864 62.942,159.845 	"/>
	<polygon style="fill:#4F4F4F;" points="67.479,152.018 64.084,150.037 184.379,80.868 187.774,82.849 	"/>
	<polygon style="fill:#545454;" points="64.084,150.037 62.547,152.689 61.039,155.29 59.547,157.864 62.942,159.845 
		64.434,157.271 65.942,154.67 67.479,152.018 	"/>
	<polygon style="fill:#3F3F3F;" points="187.774,82.849 189.269,83.705 190.781,84.573 192.32,85.453 192.349,112.751 
		185.606,116.628 185.58,91.964 69.782,158.441 69.716,183.265 62.971,187.143 62.942,159.845 64.434,157.271 65.942,154.67 
		67.479,152.018 	"/>
	<path style="fill:#747474;" d="M77.176,134.912c0.603,0.349,0.607,0.915,0.005,1.263s-1.578,0.346-2.181-0.004
		c-0.605-0.351-0.607-0.915-0.005-1.263C75.598,134.56,76.571,134.562,77.176,134.912z"/>
	<path style="fill:#535353;" d="M83.972,131.779c1.037,0.601,1.041,1.573,0.008,2.171l-10.647,6.162
		c-0.967,0.56-2.499,0.593-3.542,0.101l-1.223-3.353l9.802-5.673l-15.052-8.726l-0.89-2.441c0.894-0.429,1.85,0.342,2.501,0.719
		L83.972,131.779z M75,136.172c0.603,0.349,1.579,0.352,2.181,0.004c0.602-0.349,0.598-0.914-0.005-1.263
		c-0.605-0.351-1.579-0.352-2.181-0.004C74.393,135.257,74.395,135.821,75,136.172"/>
	<polygon style="fill:#D3DDF5;" points="63.317,122.461 68.569,136.861 53.516,128.134 	"/>
	<polygon style="fill:#B8C6F2;" points="78.371,131.188 68.569,136.861 63.317,122.461 	"/>
	<path style="fill:#747474;" d="M62.428,120.021l0.108,0.296l0.782,2.145l-9.803,5.672l15.053,8.727l1.223,3.353l-20.399-11.814
		c-0.402-0.233-0.401-0.609-0.003-0.839l12.941-7.49C62.361,120.053,62.394,120.036,62.428,120.021z"/>
	<path style="fill:#666666;" d="M49.393,128.399c-0.043-0.025-0.08-0.053-0.114-0.081c-0.009-0.008-0.019-0.015-0.027-0.023
		c-0.026-0.024-0.047-0.049-0.067-0.074c-0.007-0.009-0.015-0.017-0.021-0.025c-0.016-0.023-0.026-0.048-0.037-0.072
		c-0.005-0.012-0.014-0.024-0.018-0.037c-0.012-0.036-0.017-0.072-0.017-0.108c0-0.001-0.001-0.002-0.001-0.003l0,0l0,0l-0.006,1.31
		c0,0.037,0.006,0.075,0.018,0.112c0.004,0.012,0.012,0.023,0.017,0.035c0.01,0.023,0.019,0.046,0.034,0.069
		c0.001,0.002,0.003,0.003,0.004,0.004c0.006,0.009,0.014,0.016,0.021,0.025c0.016,0.021,0.031,0.041,0.051,0.061
		c0.005,0.005,0.011,0.009,0.016,0.013c0.008,0.008,0.018,0.015,0.027,0.022c0.014,0.011,0.025,0.023,0.041,0.034
		c0.023,0.016,0.047,0.032,0.073,0.047l20.399,11.814l0.006-1.31L49.393,128.399z"/>
	<path style="fill:#474747;" d="M84.674,134.53c0.008-0.019,0.017-0.038,0.024-0.057c0.01-0.031,0.017-0.063,0.024-0.094
		c0.004-0.017,0.01-0.033,0.012-0.05c0.008-0.048,0.012-0.097,0.013-0.145l0.006-1.31c0,0.048-0.004,0.097-0.013,0.145
		c-0.003,0.016-0.008,0.032-0.012,0.048c-0.007,0.032-0.014,0.064-0.024,0.096c-0.006,0.018-0.015,0.036-0.023,0.054
		c-0.012,0.029-0.022,0.058-0.037,0.087c-0.01,0.019-0.023,0.038-0.034,0.058c-0.016,0.027-0.03,0.053-0.048,0.079
		c-0.049,0.071-0.11,0.139-0.178,0.205c-0.013,0.012-0.025,0.025-0.038,0.037c-0.059,0.054-0.123,0.107-0.194,0.157
		c-0.054,0.038-0.11,0.074-0.171,0.109l-10.647,6.162c-0.119,0.069-0.247,0.129-0.381,0.182c-0.019,0.008-0.04,0.013-0.059,0.02
		c-0.106,0.039-0.215,0.074-0.327,0.104c-0.121,0.032-0.246,0.056-0.373,0.077c-0.04,0.007-0.079,0.017-0.12,0.023
		c-0.018,0.002-0.037,0.003-0.056,0.006c-0.122,0.015-0.245,0.024-0.369,0.029c-0.037,0.001-0.074,0.003-0.111,0.003
		c-0.272,0.004-0.545-0.017-0.809-0.061c-0.109-0.018-0.216-0.044-0.321-0.07c-0.057-0.014-0.116-0.026-0.172-0.043
		c-0.041-0.013-0.08-0.028-0.12-0.042c-0.111-0.038-0.222-0.077-0.325-0.126l0,0l-0.006,1.31c0.045,0.021,0.09,0.041,0.137,0.06
		c0.06,0.025,0.125,0.044,0.188,0.066c0.04,0.014,0.079,0.029,0.12,0.042c0.013,0.004,0.025,0.01,0.039,0.014
		c0.043,0.013,0.09,0.018,0.133,0.029c0.105,0.027,0.211,0.052,0.32,0.07c0.021,0.004,0.041,0.011,0.063,0.014
		c0.106,0.016,0.214,0.029,0.323,0.037h0c0.14,0.011,0.282,0.013,0.423,0.011c0.037-0.001,0.074-0.002,0.112-0.003
		c0.124-0.005,0.246-0.014,0.368-0.029c0.019-0.002,0.038-0.003,0.057-0.006c0.006-0.001,0.013-0.001,0.019-0.002
		c0.034-0.005,0.066-0.015,0.1-0.021c0.127-0.021,0.252-0.045,0.373-0.077c0.015-0.004,0.03-0.005,0.045-0.009
		c0.097-0.027,0.19-0.06,0.282-0.095c0.019-0.007,0.04-0.012,0.059-0.02c0.003-0.001,0.006-0.002,0.009-0.003
		c0.099-0.04,0.195-0.084,0.286-0.132c0.029-0.015,0.057-0.031,0.085-0.047l10.647-6.162c0.058-0.034,0.113-0.069,0.165-0.105
		c0.002-0.001,0.004-0.003,0.006-0.005c0.072-0.05,0.136-0.103,0.194-0.157c0.006-0.005,0.014-0.01,0.019-0.016
		c0.007-0.007,0.012-0.015,0.019-0.022c0.068-0.067,0.129-0.135,0.178-0.205c0.001-0.001,0.002-0.002,0.003-0.003
		c0.017-0.025,0.03-0.05,0.045-0.076c0.011-0.019,0.025-0.039,0.035-0.058C84.653,134.586,84.663,134.558,84.674,134.53z"/>
	<path style="fill:#747474;" d="M118.146,111.383c0.603,0.349,0.607,0.915,0.005,1.263c-0.602,0.349-1.578,0.346-2.181-0.004
		c-0.605-0.351-0.607-0.915-0.005-1.263C116.567,111.031,117.541,111.032,118.146,111.383z"/>
	<path style="fill:#535353;" d="M124.942,108.25c1.037,0.601,1.041,1.573,0.008,2.171l-10.647,6.162
		c-0.967,0.56-2.499,0.593-3.542,0.101l-1.223-3.353l9.802-5.673l-15.052-8.726l-0.89-2.441c0.894-0.429,1.85,0.342,2.501,0.719
		L124.942,108.25z M115.97,112.642c0.603,0.349,1.579,0.352,2.181,0.004c0.602-0.349,0.598-0.914-0.005-1.263
		c-0.605-0.351-1.579-0.352-2.181-0.004C115.363,111.728,115.365,112.292,115.97,112.642"/>
	<polygon style="fill:#D3DDF5;" points="104.287,98.932 109.539,113.331 94.485,104.605 	"/>
	<polygon style="fill:#B8C6F2;" points="119.34,107.658 109.539,113.331 104.287,98.932 	"/>
	<path style="fill:#747474;" d="M103.398,96.492l0.108,0.296l0.782,2.145l-9.803,5.672l15.053,8.727l1.223,3.353L90.362,104.87
		c-0.402-0.233-0.401-0.609-0.003-0.839l12.941-7.49C103.331,96.524,103.363,96.507,103.398,96.492z"/>
	<path style="fill:#666666;" d="M90.362,104.87c-0.043-0.025-0.08-0.053-0.114-0.081c-0.009-0.008-0.019-0.015-0.027-0.023
		c-0.026-0.024-0.047-0.049-0.067-0.074c-0.007-0.009-0.015-0.017-0.021-0.025c-0.016-0.023-0.026-0.048-0.037-0.072
		c-0.005-0.012-0.014-0.024-0.018-0.037c-0.012-0.036-0.017-0.072-0.017-0.108c0-0.001-0.001-0.002-0.001-0.003v0l0,0l-0.006,1.31
		c0,0.037,0.006,0.075,0.018,0.112c0.004,0.012,0.012,0.023,0.017,0.035c0.01,0.023,0.019,0.046,0.034,0.069
		c0.001,0.002,0.003,0.003,0.004,0.004c0.006,0.009,0.014,0.016,0.021,0.025c0.016,0.021,0.031,0.041,0.051,0.061
		c0.005,0.005,0.011,0.009,0.016,0.013c0.008,0.008,0.018,0.015,0.027,0.022c0.014,0.011,0.025,0.023,0.041,0.034
		c0.023,0.016,0.047,0.032,0.073,0.047l20.399,11.814l0.006-1.31L90.362,104.87z"/>
	<path style="fill:#474747;" d="M125.644,111c0.008-0.019,0.017-0.038,0.024-0.057c0.01-0.031,0.017-0.063,0.024-0.094
		c0.004-0.017,0.01-0.033,0.012-0.05c0.008-0.048,0.012-0.097,0.013-0.145l0.006-1.31c0,0.048-0.004,0.097-0.013,0.145
		c-0.003,0.016-0.008,0.032-0.012,0.048c-0.007,0.032-0.014,0.064-0.024,0.096c-0.006,0.018-0.015,0.036-0.023,0.054
		c-0.012,0.029-0.022,0.058-0.037,0.087c-0.01,0.019-0.023,0.038-0.034,0.058c-0.016,0.027-0.03,0.053-0.048,0.079
		c-0.049,0.071-0.11,0.139-0.178,0.205c-0.013,0.012-0.025,0.025-0.038,0.037c-0.059,0.054-0.123,0.107-0.194,0.157
		c-0.054,0.038-0.11,0.074-0.171,0.109l-10.647,6.162c-0.119,0.069-0.247,0.129-0.381,0.182c-0.019,0.008-0.04,0.013-0.059,0.02
		c-0.106,0.039-0.215,0.074-0.327,0.104c-0.121,0.032-0.246,0.056-0.373,0.077c-0.04,0.007-0.079,0.017-0.12,0.023
		c-0.018,0.002-0.037,0.003-0.056,0.006c-0.122,0.015-0.245,0.024-0.369,0.029c-0.037,0.001-0.074,0.003-0.111,0.003
		c-0.272,0.004-0.545-0.017-0.809-0.061c-0.109-0.018-0.216-0.044-0.321-0.07c-0.057-0.014-0.116-0.026-0.172-0.043
		c-0.041-0.013-0.08-0.028-0.12-0.042c-0.111-0.038-0.222-0.077-0.325-0.126l0,0l-0.006,1.31c0.045,0.021,0.09,0.041,0.137,0.06
		c0.06,0.025,0.125,0.044,0.188,0.066c0.04,0.014,0.079,0.029,0.12,0.042c0.013,0.004,0.025,0.01,0.039,0.014
		c0.043,0.013,0.09,0.018,0.133,0.029c0.105,0.027,0.211,0.052,0.32,0.07c0.021,0.004,0.041,0.011,0.063,0.014
		c0.106,0.016,0.214,0.029,0.323,0.037h0c0.14,0.011,0.282,0.013,0.423,0.011c0.037-0.001,0.074-0.002,0.112-0.003
		c0.124-0.005,0.246-0.014,0.368-0.029c0.019-0.002,0.038-0.003,0.057-0.006c0.006-0.001,0.013-0.001,0.019-0.002
		c0.034-0.005,0.066-0.015,0.1-0.021c0.127-0.021,0.252-0.045,0.373-0.077c0.015-0.004,0.03-0.005,0.045-0.009
		c0.097-0.027,0.19-0.06,0.282-0.095c0.019-0.007,0.04-0.012,0.059-0.02c0.003-0.001,0.006-0.002,0.009-0.003
		c0.099-0.04,0.195-0.084,0.286-0.132c0.029-0.015,0.057-0.031,0.085-0.047l10.647-6.162c0.058-0.034,0.113-0.069,0.165-0.105
		c0.002-0.001,0.004-0.003,0.006-0.005c0.072-0.05,0.136-0.103,0.194-0.157c0.006-0.005,0.014-0.01,0.019-0.016
		c0.007-0.007,0.012-0.015,0.019-0.022c0.068-0.067,0.129-0.135,0.178-0.205c0.001-0.001,0.002-0.002,0.003-0.003
		c0.017-0.025,0.03-0.05,0.045-0.076c0.011-0.019,0.025-0.039,0.035-0.058C125.622,111.057,125.633,111.029,125.644,111z"/>
	<path style="fill:#747474;" d="M157.615,88.882c0.603,0.349,0.607,0.915,0.005,1.263c-0.602,0.349-1.578,0.346-2.181-0.004
		c-0.605-0.351-0.607-0.915-0.005-1.263C156.037,88.529,157.01,88.531,157.615,88.882z"/>
	<path style="fill:#535353;" d="M164.411,85.749c1.037,0.601,1.041,1.573,0.008,2.171l-10.647,6.162
		c-0.967,0.56-2.499,0.593-3.542,0.101l-1.223-3.353l9.802-5.673l-15.052-8.726l-0.89-2.441c0.894-0.429,1.85,0.342,2.501,0.719
		L164.411,85.749z M155.439,90.141c0.603,0.349,1.579,0.352,2.181,0.004c0.602-0.349,0.598-0.914-0.005-1.263
		c-0.605-0.351-1.579-0.352-2.181-0.004C154.832,89.226,154.835,89.79,155.439,90.141"/>
	<polygon style="fill:#D3DDF5;" points="143.757,76.43 149.008,90.83 133.955,82.103 	"/>
	<polygon style="fill:#B8C6F2;" points="158.81,85.157 149.008,90.83 143.757,76.43 	"/>
	<path style="fill:#747474;" d="M142.867,73.99l0.108,0.296l0.782,2.145l-9.803,5.672l15.053,8.727l1.223,3.353l-20.399-11.814
		c-0.402-0.233-0.401-0.609-0.003-0.839l12.941-7.49C142.8,74.022,142.833,74.005,142.867,73.99z"/>
	<path style="fill:#666666;" d="M129.832,82.369c-0.043-0.025-0.08-0.053-0.114-0.081c-0.009-0.008-0.019-0.015-0.027-0.023
		c-0.026-0.024-0.047-0.049-0.067-0.074c-0.007-0.009-0.015-0.017-0.021-0.025c-0.016-0.023-0.026-0.048-0.037-0.072
		c-0.005-0.012-0.014-0.024-0.018-0.037c-0.012-0.036-0.017-0.072-0.017-0.108c0-0.001-0.001-0.002-0.001-0.003v0l0,0l-0.006,1.31
		c0,0.037,0.006,0.075,0.018,0.112c0.004,0.012,0.012,0.023,0.017,0.035c0.01,0.023,0.019,0.046,0.034,0.069
		c0.001,0.002,0.003,0.003,0.004,0.004c0.006,0.009,0.014,0.016,0.021,0.025c0.016,0.021,0.031,0.041,0.051,0.061
		c0.005,0.005,0.011,0.009,0.016,0.013c0.008,0.008,0.018,0.015,0.027,0.022c0.014,0.011,0.025,0.023,0.041,0.034
		c0.023,0.016,0.047,0.032,0.073,0.047l20.399,11.814l0.006-1.31L129.832,82.369z"/>
	<path style="fill:#474747;" d="M165.113,88.499c0.008-0.019,0.017-0.038,0.024-0.057c0.01-0.031,0.017-0.063,0.024-0.094
		c0.004-0.017,0.01-0.033,0.012-0.05c0.008-0.048,0.012-0.097,0.013-0.145l0.006-1.31c0,0.048-0.004,0.097-0.013,0.145
		c-0.003,0.016-0.008,0.032-0.012,0.048c-0.007,0.032-0.014,0.064-0.024,0.096c-0.006,0.018-0.015,0.036-0.023,0.054
		c-0.012,0.029-0.022,0.058-0.037,0.087c-0.01,0.019-0.023,0.038-0.034,0.058c-0.016,0.027-0.03,0.053-0.048,0.079
		c-0.049,0.071-0.11,0.139-0.178,0.205c-0.013,0.012-0.025,0.025-0.038,0.037c-0.059,0.054-0.123,0.107-0.194,0.157
		c-0.054,0.038-0.11,0.074-0.171,0.109l-10.647,6.162c-0.119,0.069-0.247,0.129-0.381,0.182c-0.019,0.008-0.04,0.013-0.059,0.02
		c-0.106,0.039-0.215,0.074-0.327,0.104c-0.121,0.032-0.246,0.056-0.373,0.077c-0.04,0.007-0.079,0.017-0.12,0.023
		c-0.018,0.002-0.037,0.003-0.056,0.006c-0.122,0.015-0.245,0.024-0.369,0.029c-0.037,0.001-0.074,0.003-0.111,0.003
		c-0.272,0.004-0.545-0.017-0.809-0.061c-0.109-0.018-0.216-0.044-0.321-0.07c-0.057-0.014-0.116-0.026-0.172-0.043
		c-0.041-0.013-0.08-0.028-0.12-0.042c-0.111-0.038-0.222-0.077-0.325-0.126l0,0l-0.006,1.31c0.045,0.021,0.09,0.041,0.137,0.06
		c0.06,0.025,0.125,0.044,0.188,0.066c0.04,0.014,0.079,0.029,0.12,0.042c0.013,0.004,0.025,0.01,0.039,0.014
		c0.043,0.013,0.09,0.018,0.133,0.029c0.105,0.027,0.211,0.052,0.32,0.07c0.021,0.004,0.041,0.011,0.063,0.014
		c0.107,0.016,0.214,0.029,0.323,0.037h0c0.14,0.011,0.282,0.013,0.423,0.011c0.037-0.001,0.074-0.002,0.112-0.003
		c0.124-0.005,0.246-0.014,0.368-0.029c0.019-0.002,0.038-0.003,0.057-0.006c0.006-0.001,0.013-0.001,0.019-0.002
		c0.034-0.005,0.066-0.015,0.1-0.021c0.127-0.021,0.252-0.045,0.373-0.077c0.015-0.004,0.031-0.005,0.045-0.009
		c0.097-0.027,0.19-0.06,0.282-0.095c0.019-0.007,0.04-0.012,0.059-0.02c0.003-0.001,0.006-0.002,0.009-0.003
		c0.099-0.04,0.195-0.084,0.286-0.132c0.029-0.015,0.057-0.031,0.085-0.047l10.647-6.162c0.058-0.034,0.113-0.069,0.165-0.105
		c0.002-0.001,0.004-0.003,0.006-0.005c0.072-0.05,0.136-0.103,0.194-0.157c0.006-0.005,0.014-0.01,0.019-0.016
		c0.007-0.007,0.012-0.015,0.019-0.022c0.068-0.067,0.129-0.135,0.178-0.205c0.001-0.001,0.002-0.002,0.003-0.003
		c0.017-0.025,0.03-0.05,0.045-0.076c0.011-0.019,0.025-0.039,0.035-0.058C165.092,88.556,165.102,88.527,165.113,88.499z"/>
	<path style="fill:#3F3F3F;" d="M96.884,89.348l-0.056,19.785c-0.004,1.434-0.953,2.866-2.849,3.961
		c-3.813,2.201-10.02,2.201-13.861-0.002c-1.931-1.108-2.896-2.562-2.892-4.015l0.056-19.785c-0.004,1.452,0.96,2.907,2.892,4.015
		c3.841,2.203,10.048,2.203,13.861,0.002C95.931,92.214,96.88,90.782,96.884,89.348z"/>
	<path style="fill:#484848;" d="M100.302,83.44l-0.056,19.785c-0.006,1.934-1.285,3.866-3.841,5.341
		c-5.146,2.97-13.518,2.97-18.697,0c-2.606-1.495-3.908-3.457-3.902-5.416l0.056-19.785c-0.006,1.959,1.296,3.922,3.902,5.416
		c5.179,2.97,13.551,2.97,18.697,0C99.017,87.305,100.297,85.374,100.302,83.44z"/>
	<path style="fill:#FFB600;" d="M98.839,75.011c8.047,4.615,8.089,12.098,0.095,16.713c-7.997,4.617-21.003,4.617-29.05,0.002
		L40.895,75.101l28.955-16.715L98.839,75.011z"/>
	<path style="fill:#D19309;" d="M98.934,91.724c-7.998,4.617-21.003,4.617-29.05,0.002L40.895,75.101l-0.028,9.892l28.989,16.625
		c8.047,4.615,21.052,4.615,29.05-0.002c3.972-2.293,5.96-5.293,5.968-8.298l0.028-9.892
		C104.894,86.431,102.906,89.431,98.934,91.724z"/>
	<path style="fill:#3F3F3F;" d="M163.476,32.431l-0.056,19.785c-0.004,1.434-0.953,2.866-2.849,3.961
		c-3.813,2.201-10.02,2.201-13.861-0.002c-1.931-1.108-2.896-2.562-2.892-4.015l0.056-19.785c-0.004,1.452,0.96,2.907,2.892,4.015
		c3.841,2.203,10.048,2.203,13.861,0.002C162.523,35.298,163.472,33.865,163.476,32.431z"/>
	<path style="fill:#484848;" d="M166.894,26.523l-0.056,19.785c-0.006,1.934-1.285,3.866-3.841,5.341
		c-5.146,2.97-13.518,2.97-18.697,0c-2.606-1.495-3.908-3.457-3.902-5.416l0.056-19.785c-0.006,1.959,1.296,3.922,3.902,5.416
		c5.179,2.97,13.551,2.97,18.697,0C165.609,30.389,166.888,28.458,166.894,26.523z"/>
	<path style="fill:#FFB600;" d="M165.431,18.095c8.047,4.615,8.089,12.098,0.095,16.713c-7.997,4.617-21.003,4.617-29.05,0.002
		l-28.989-16.625L136.442,1.47L165.431,18.095z"/>
	<path style="fill:#D19309;" d="M165.526,34.808c-7.998,4.617-21.003,4.617-29.05,0.002l-28.989-16.625l-0.028,9.892l28.989,16.625
		c8.047,4.615,21.052,4.615,29.05-0.002c3.972-2.293,5.96-5.293,5.968-8.298l0.028-9.892
		C171.485,29.514,169.497,32.515,165.526,34.808z"/>
	<g>
		<polygon style="fill:#9FB97E;" points="301,127.817 259.42,151.98 213.892,125.695 255.473,101.531 		"/>
		<polygon style="fill:#657550;" points="301,127.817 300.879,170.338 259.299,194.502 259.42,151.98 		"/>
		<polygon style="fill:#879D6C;" points="259.42,151.98 259.299,194.502 213.772,168.217 213.892,125.695 		"/>
	</g>
	<g>
		<path style="fill:#454545;" d="M257.291,64.666c-0.37-0.214-0.71-0.258-0.975-0.157c-0.038,0.014-0.074,0.032-0.109,0.052
			l-36.765,21.365c0.277-0.161,0.661-0.138,1.084,0.106l1.549,0.894l36.765-21.365L257.291,64.666z"/>
		<polygon style="fill:#B7C5F1;" points="223.527,94.041 256.783,140.089 223.451,120.845 		"/>
		<path style="fill:#4B4B4B;" d="M297.672,125.402L297.672,125.402l-36.765,21.365v0.001c0,0.086-0.005,0.165-0.012,0.243
			l0.011-0.006c-0.001,0.057-0.003,0.112-0.008,0.165c-0.002,0.02-0.006,0.037-0.008,0.056c-0.005,0.037-0.01,0.073-0.017,0.108
			c-0.006,0.03-0.014,0.058-0.022,0.086c-0.005,0.018-0.009,0.038-0.015,0.056c-0.01,0.03-0.022,0.059-0.034,0.087
			c-0.006,0.014-0.01,0.028-0.016,0.041c-0.001,0.003-0.003,0.006-0.005,0.009c-0.027,0.056-0.059,0.106-0.094,0.152
			c-0.008,0.01-0.015,0.02-0.023,0.03c-0.035,0.043-0.074,0.082-0.116,0.115c-0.028,0.022-0.056,0.043-0.086,0.06l36.765-21.365
			c0.028-0.016,0.055-0.034,0.08-0.054c0.002-0.002,0.004-0.004,0.006-0.006c0.042-0.033,0.08-0.072,0.116-0.115
			c0.003-0.004,0.008-0.007,0.011-0.011c0.005-0.006,0.007-0.013,0.012-0.019c0.035-0.046,0.067-0.096,0.094-0.152
			c0.001-0.002,0.003-0.004,0.004-0.006c0-0.001,0.001-0.002,0.001-0.002c0.007-0.014,0.011-0.029,0.017-0.043
			c0.012-0.028,0.024-0.056,0.033-0.086c0.006-0.018,0.01-0.037,0.015-0.056c0.007-0.025,0.015-0.05,0.021-0.077
			c0.001-0.003,0.001-0.006,0.001-0.009c0.007-0.035,0.012-0.072,0.017-0.109c0.002-0.019,0.006-0.036,0.008-0.055
			c0.006-0.057,0.009-0.117,0.009-0.179L297.672,125.402L297.672,125.402L297.672,125.402z"/>
		<path style="fill:#525252;" d="M256.208,139.757l4.687,7.254c0.007-0.078,0.012-0.158,0.012-0.244l-0.001,0.224
			c-0.003,0.968-0.688,1.359-1.53,0.872l-38.961-22.494c-0.841-0.486-1.521-1.664-1.519-2.632l0.102-35.832
			c0.003-0.968,0.688-1.359,1.529-0.873l1.549,0.894l6.468,10.011l-5.015-2.896l-0.076,26.804L256.208,139.757z"/>
		<polygon style="fill:#D2DCF4;" points="256.859,113.285 256.783,140.089 223.527,94.041 228.543,96.937 		"/>
		<polygon style="fill:#696969;" points="261.007,111.383 297.772,90.018 297.672,125.402 260.907,146.767 		"/>
		<polygon style="fill:#616161;" points="222.075,86.926 258.839,65.561 296.44,87.269 259.676,108.635 		"/>
		<path style="fill:#494949;" d="M297.772,89.794c0-0.059-0.004-0.119-0.009-0.18c0,0,0.001-0.001,0.002-0.001
			c-0.001-0.007-0.003-0.015-0.003-0.023c-0.008-0.09-0.021-0.182-0.039-0.274c-0.003-0.013-0.007-0.026-0.01-0.039
			c-0.017-0.08-0.038-0.16-0.062-0.24c-0.009-0.03-0.019-0.059-0.029-0.089c-0.012-0.034-0.021-0.069-0.034-0.103
			c-0.008-0.02-0.018-0.04-0.026-0.06c-0.03-0.077-0.064-0.152-0.099-0.227c-0.012-0.026-0.021-0.053-0.034-0.078
			c-0.013-0.025-0.026-0.051-0.039-0.076l0,0c-0.011-0.022-0.021-0.044-0.032-0.065c-0.006-0.011-0.012-0.021-0.018-0.032
			c-0.041-0.08-0.085-0.158-0.131-0.233c-0.003-0.005-0.006-0.011-0.009-0.016c-0.001-0.002-0.002-0.003-0.003-0.005
			c-0.044-0.07-0.089-0.136-0.137-0.2c-0.005-0.006-0.009-0.013-0.013-0.02c-0.009-0.011-0.018-0.021-0.027-0.033
			c-0.035-0.045-0.07-0.088-0.106-0.129c-0.009-0.01-0.017-0.022-0.026-0.032c-0.005-0.006-0.012-0.011-0.017-0.017
			c-0.054-0.058-0.108-0.113-0.165-0.162c-0.002-0.001-0.003-0.003-0.005-0.004c-0.026-0.023-0.054-0.043-0.08-0.064
			c-0.015-0.012-0.03-0.024-0.045-0.035c-0.044-0.032-0.089-0.062-0.135-0.088l-36.765,21.365c0.045,0.026,0.09,0.056,0.135,0.088
			c0.015,0.011,0.029,0.023,0.043,0.034c0.029,0.022,0.058,0.045,0.086,0.069c0.056,0.049,0.111,0.104,0.165,0.162
			c0.015,0.016,0.029,0.033,0.044,0.049c0.036,0.041,0.071,0.084,0.106,0.129c0.013,0.017,0.027,0.034,0.04,0.052
			c0.047,0.064,0.093,0.13,0.136,0.2c0.004,0.007,0.008,0.015,0.013,0.022c0.046,0.074,0.089,0.152,0.13,0.232
			c0.017,0.032,0.034,0.064,0.05,0.097c0.048,0.099,0.091,0.203,0.131,0.308c0.006,0.016,0.012,0.031,0.018,0.046
			c0.033,0.089,0.062,0.18,0.089,0.272c0.006,0.02,0.011,0.04,0.016,0.06c0.023,0.085,0.043,0.17,0.061,0.256
			c0.002,0.012,0.006,0.025,0.008,0.037c0.018,0.094,0.031,0.189,0.041,0.283c0.002,0.022,0.004,0.043,0.006,0.065
			c0.008,0.096,0.014,0.192,0.014,0.286l36.765-21.365c0-0.073-0.003-0.146-0.008-0.219L297.772,89.794z"/>
		<path style="fill:#737373;" d="M259.676,108.635c0.371,0.214,0.707,0.633,0.948,1.135c0.238,0.495,0.385,1.072,0.383,1.614
			l-0.1,35.384c0,0.086-0.005,0.166-0.012,0.244l-4.687-7.254l0.575,0.332l0.076-26.804l-28.316-16.348l-6.468-10.011
			L259.676,108.635z"/>
	</g>
</g>
</svg>
