<?xml version="1.0" encoding="iso-8859-1"?>
<!-- Generator: Adobe Illustrator 20.1.0, SVG Export Plug-In . SVG Version: 6.00 Build 0)  -->
<!DOCTYPE svg PUBLIC "-//W3C//DTD SVG 1.1//EN" "http://www.w3.org/Graphics/SVG/1.1/DTD/svg11.dtd">
<svg version="1.1" id="Layer_1" xmlns="http://www.w3.org/2000/svg" xmlns:xlink="http://www.w3.org/1999/xlink" x="0px" y="0px"
	 viewBox="0 0 301 229" style="enable-background:new 0 0 301 229;" xml:space="preserve">
<g>
	<g>
		<g style="enable-background:new    ;">
			<g>
				<path style="fill:#FFE1DC;" d="M256.482,69.426c-58.916-36.504-154.125-36.504-212.658,0.001s-58.222,95.69,0.693,132.195
					s154.125,36.504,212.658-0.001S315.398,105.931,256.482,69.426"/>
			</g>
		</g>
	</g>
	<g>
		<path style="fill:#F2F2F2;" d="M203.747,191.069L248,165.352l5.309,3.065c0.745,0.43,0.749,1.124,0.011,1.552l-41.584,24.166
			c-0.737,0.429-1.935,0.429-2.68-0.001L203.747,191.069z"/>
		<path style="fill:#F2F2F2;" d="M182.319,178.698c-0.745-0.43-0.749-1.124-0.011-1.552l41.584-24.166
			c0.737-0.429,1.935-0.429,2.68,0.001l16.05,9.266l-44.253,25.717L182.319,178.698z"/>
		<polygon style="fill:#2E2E2E;" points="248,165.352 203.747,191.069 198.369,187.964 242.622,162.247 		"/>
		<path style="fill:#DADADA;" d="M253.838,169.394c-0.002,0.007-0.004,0.014-0.006,0.021c-0.021,0.06-0.052,0.119-0.09,0.176
			c-0.007,0.01-0.013,0.021-0.021,0.031c-0.041,0.057-0.091,0.112-0.15,0.165c-0.039,0.035-0.088,0.067-0.134,0.099
			c-0.039,0.028-0.072,0.057-0.116,0.083l-41.584,24.166c-0.114,0.066-0.241,0.118-0.373,0.164c-0.047,0.016-0.095,0.03-0.143,0.044
			c-0.062,0.017-0.125,0.034-0.189,0.047c-0.076,0.016-0.152,0.03-0.23,0.04c-0.019,0.002-0.037,0.006-0.056,0.008
			c-0.105,0.011-0.212,0.017-0.319,0.018c-0.017,0-0.033,0-0.05,0c-0.106-0.001-0.211-0.007-0.315-0.018
			c-0.015-0.002-0.031-0.003-0.046-0.005c-0.103-0.012-0.205-0.03-0.305-0.052c-0.018-0.004-0.036-0.009-0.054-0.013
			c-0.091-0.022-0.179-0.049-0.264-0.08c-0.015-0.005-0.031-0.01-0.046-0.016c-0.102-0.039-0.199-0.085-0.29-0.137l-26.737-15.436
			c-0.375-0.217-0.562-0.5-0.561-0.783l-0.003,1.203c-0.001,0.283,0.186,0.566,0.561,0.783l26.737,15.436
			c0.086,0.05,0.178,0.094,0.275,0.132c0.005,0.002,0.01,0.003,0.015,0.005c0.015,0.006,0.03,0.01,0.045,0.015
			c0.056,0.02,0.112,0.041,0.171,0.058c0.03,0.009,0.062,0.015,0.093,0.023c0.018,0.005,0.036,0.009,0.055,0.013
			c0.017,0.004,0.033,0.009,0.05,0.012c0.062,0.013,0.125,0.024,0.188,0.033c0.022,0.003,0.044,0.005,0.066,0.007
			c0.016,0.002,0.031,0.004,0.047,0.005c0.024,0.002,0.047,0.006,0.07,0.008c0.062,0.005,0.124,0.008,0.186,0.01
			c0.019,0,0.038,0,0.058,0c0.017,0,0.034,0,0.051,0c0.029,0,0.057,0.001,0.086,0c0.07-0.002,0.14-0.007,0.21-0.014
			c0.008-0.001,0.016-0.002,0.023-0.003c0.019-0.002,0.037-0.005,0.055-0.008c0.054-0.007,0.109-0.013,0.163-0.023
			c0.024-0.004,0.045-0.012,0.068-0.017c0.065-0.013,0.127-0.03,0.189-0.047c0.033-0.009,0.068-0.015,0.101-0.025
			c0.015-0.005,0.027-0.013,0.042-0.019c0.132-0.046,0.259-0.098,0.373-0.164l41.584-24.166c0.008-0.005,0.016-0.009,0.023-0.014
			c0.036-0.022,0.061-0.047,0.094-0.069c0.046-0.033,0.095-0.064,0.134-0.099c0.004-0.003,0.009-0.006,0.013-0.009
			c0.044-0.041,0.083-0.083,0.117-0.126c0.008-0.01,0.013-0.02,0.02-0.03c0.007-0.01,0.014-0.021,0.021-0.031
			c0.012-0.017,0.025-0.035,0.035-0.052c0.02-0.035,0.037-0.071,0.05-0.107c0.002-0.005,0.003-0.011,0.005-0.016
			c0.002-0.007,0.004-0.014,0.006-0.021c0.007-0.023,0.015-0.046,0.02-0.069c0.007-0.036,0.011-0.072,0.012-0.108
			c0-0.006,0-0.011,0-0.017l0.003-1.203C253.87,169.265,253.858,169.33,253.838,169.394z"/>
		<g id="Book">
			<polygon style="fill:#AB4F4F;" points="183.232,117.212 183.229,118.105 122.098,153.63 122.101,152.738 			"/>
			<polygon style="fill:#F0ECEC;" points="177.98,103.535 177.94,117.817 121.653,150.528 121.693,136.245 			"/>
			<polygon style="fill:#AB4F4F;" points="183.232,99.691 183.229,100.584 122.098,136.109 122.101,135.216 			"/>
			<polygon style="fill:#773737;" points="121.424,135.611 121.371,154.041 38.491,106.19 38.543,87.76 			"/>
			<polygon style="fill:#AB4F4F;" points="121.424,135.611 122.195,135.163 122.143,153.592 121.371,154.041 			"/>
			<polygon style="fill:#BE5858;" points="183.232,99.691 100.351,51.84 39.22,87.365 39.222,87.366 38.543,87.76 121.424,135.611 
				122.195,135.163 122.194,135.162 			"/>
			<polygon style="fill:#BE5858;" points="177.94,117.817 122.153,150.237 122.146,152.712 183.232,117.212 177.95,114.163 			"/>
		</g>
		<path style="fill:#755514;" d="M30.465,150.316l0.01-3.601c0.004-0.221,0.006-0.479,0.009-0.736
			c-1.723-0.278-3.039-1.674-3.039-3.352c0-1.878,1.646-3.406,3.668-3.406h0.062c0.051-0.278,0.102-0.547,0.152-0.789
			c0.089-0.427,0.225-0.991,0.334-1.413c0.097-0.377,0.246-0.874,0.352-1.249c0.119-0.42,0.32-0.968,0.46-1.382
			c0.077-0.228,0.187-0.513,0.309-0.811h-1.668c-5.135,0-9.313,4.06-9.313,9.05c0,4.782,3.84,8.7,8.679,9.019
			C30.464,151.044,30.464,150.584,30.465,150.316z"/>
		<path style="fill:#D19309;" d="M86.934,146.876c-0.012,4.157-2.745,8.307-8.204,11.481c-10.996,6.387-28.854,6.386-39.921,0
			c-5.566-3.215-8.347-7.432-8.335-11.642l-0.01,3.601c-0.001,0.779-0.005,3.148,0.408,6.012c0.297,2.056,0.687,3.776,1.266,5.579
			c0.564,1.756,1.321,3.369,1.665,3.973c0.349,0.612,0.81,1.433,1.22,2.006c0.237,0.333,0.557,0.774,0.814,1.091
			c0.28,0.346,0.664,0.802,0.975,1.12c0.63,0.645,1.536,1.44,2.226,2.02c0.359,0.302,0.885,0.642,1.265,0.916
			c0.6,0.431,2.149,1.325,2.943,1.689c0.476,0.218,1.101,0.529,1.59,0.716c0.97,0.371,2.272,0.849,3.269,1.141
			c0.511,0.15,1.197,0.34,1.718,0.449c0.521,0.109,1.214,0.266,1.738,0.363c0.529,0.097,1.239,0.203,1.771,0.282
			c0.534,0.079,1.249,0.164,1.788,0.2c1.082,0.072,2.526,0.16,3.61,0.16c0.543,0,1.266-0.016,1.809-0.04
			c0.541-0.024,1.26-0.084,1.8-0.12c0.54-0.036,1.254-0.138,1.791-0.201c0.538-0.063,1.249-0.187,1.781-0.285
			c0.523-0.096,1.214-0.254,1.734-0.364c0.515-0.108,1.189-0.311,1.698-0.446c0.517-0.137,1.194-0.367,1.698-0.544
			c0.486-0.171,1.124-0.428,1.604-0.616c0.056-0.022,1.396-0.55,3.122-1.545c0.806-0.464,1.855-1.14,2.57-1.734
			c0.351-0.291,0.833-0.663,1.161-0.979c0.549-0.529,1.257-1.26,1.761-1.833c0.728-0.827,1.586-2.165,1.821-2.575
			c0.386-0.675,0.852-1.604,1.185-2.307c0.192-0.405,0.404-0.965,0.564-1.383c0.156-0.409,0.351-0.961,0.475-1.381
			c0.223-0.756,0.501-1.77,0.682-2.537c0.1-0.425,0.22-0.994,0.291-1.425c0.067-0.407,0.163-0.948,0.222-1.356
			c0.064-0.442,0.138-1.034,0.186-1.478c0.049-0.452,0.109-1.056,0.134-1.51c0.047-0.869,0.088-2.029,0.105-2.899v0L86.934,146.876z
			"/>
		<path style="fill:#333333;" d="M74.316,130.867c-8.655-4.997-22.644-4.997-31.243,0c-2.612,1.518-4.423,3.322-5.44,5.238
			c1.03,1.951,2.871,3.791,5.542,5.333c8.655,4.997,22.643,4.998,31.243,0c2.616-1.52,4.425-3.329,5.442-5.25
			C78.829,134.241,76.983,132.406,74.316,130.867z"/>
		<path style="fill:#FFB600;" d="M79.933,136.059c-1.003,1.969-2.84,3.824-5.515,5.379c-8.6,4.998-22.588,4.997-31.243,0
			c-2.748-1.586-4.625-3.486-5.636-5.5c-4.699,3.071-7.053,6.921-7.064,10.777c-0.012,4.21,2.768,8.427,8.335,11.642
			c0.154,0.089,0.315,0.172,0.471,0.259c10.873,5.998,27.899,6.036,38.782,0.11c0.224-0.122,0.449-0.242,0.667-0.368
			c5.459-3.174,8.192-7.325,8.204-11.481v0C86.945,143.017,84.609,139.153,79.933,136.059z"/>
		<path style="fill:#D19309;" d="M86.854,144.118c-0.021-0.457-0.083-1.065-0.121-1.521c-0.048-0.588-0.256-2.166-0.386-2.859
			c-0.306-1.632-0.43-2.249-0.947-4.006c-0.401-1.363-1.049-2.864-1.122-3.017c-0.168-0.353-0.376-0.831-0.564-1.173
			c-0.325-0.594-0.779-1.376-1.144-1.947c-0.434-0.68-1.102-1.531-1.644-2.128c-0.403-0.443-0.969-1.008-1.408-1.416
			c-0.334-0.311-0.808-0.694-1.164-0.979c-0.74-0.592-1.817-1.26-2.621-1.761c-1.306-0.75-2.359-1.217-3.131-1.54
			c-1.709-0.715-3.31-1.158-3.326-1.163c-0.51-0.137-1.188-0.324-1.702-0.445c-0.52-0.122-1.215-0.279-1.743-0.363
			c-0.53-0.085-1.233-0.221-1.766-0.281c-0.536-0.06-1.25-0.152-1.788-0.2c-0.54-0.048-1.26-0.107-1.802-0.12
			c-0.543-0.013-1.266-0.04-1.808-0.04c-0.543,0-1.266,0.028-1.809,0.04c-0.541,0.012-1.26,0.084-1.8,0.12
			c-0.542,0.037-2.294,0.241-3.572,0.486c-1.039,0.199-2.409,0.539-3.432,0.809c-0.517,0.137-1.189,0.379-1.698,0.544
			c-0.704,0.229-2.335,0.894-3.247,1.365c-1.185,0.613-1.837,0.959-3.19,1.891c-0.753,0.519-1.702,1.294-2.357,1.932
			c-0.317,0.309-0.739,0.723-1.027,1.058c-0.449,0.523-1.019,1.245-1.425,1.802c-0.627,0.859-1.134,1.83-1.541,2.61
			c-0.252,0.483-0.843,1.827-1.096,2.572c-0.14,0.414-0.341,0.962-0.46,1.382c-0.106,0.374-0.255,0.872-0.352,1.249
			c-0.109,0.422-0.245,0.987-0.334,1.413c-0.166,0.799-0.343,1.873-0.468,2.68c-0.069,0.443-0.13,1.038-0.176,1.484
			c-0.082,0.795-0.14,1.86-0.18,2.658c-0.022,0.438-0.02,1.024-0.029,1.462c0.011-3.856,2.365-7.706,7.064-10.777
			c-0.436-0.867-0.701-1.756-0.812-2.65c0.371-2.94,2.476-5.817,6.346-8.066c8.599-4.997,22.588-4.997,31.243,0
			c3.932,2.27,6.074,5.181,6.449,8.151c-0.112,0.907-0.384,1.808-0.832,2.686c4.675,3.094,7.012,6.957,7.001,10.816
			C86.924,146.048,86.893,144.945,86.854,144.118z"/>
		<path style="fill:#755514;" d="M80.568,132.376c-0.015-0.058-0.03-0.116-0.046-0.174c-0.042-0.147-0.088-0.293-0.139-0.439
			c-0.02-0.057-0.042-0.114-0.063-0.171c-0.171-0.459-0.385-0.913-0.643-1.361c-0.047-0.081-0.094-0.162-0.143-0.242
			c-0.074-0.121-0.151-0.241-0.232-0.361c-0.065-0.096-0.134-0.192-0.203-0.287c-0.107-0.148-0.218-0.296-0.336-0.442
			c-0.114-0.141-0.229-0.283-0.352-0.422c-0.078-0.089-0.162-0.177-0.244-0.265c-0.111-0.119-0.224-0.237-0.342-0.354
			c-0.082-0.082-0.164-0.163-0.25-0.244c-0.161-0.152-0.328-0.302-0.5-0.451c-0.049-0.042-0.094-0.085-0.143-0.126
			c-0.223-0.187-0.457-0.371-0.699-0.552c-0.077-0.058-0.158-0.115-0.238-0.173c-0.186-0.135-0.378-0.268-0.575-0.4
			c-0.082-0.055-0.163-0.11-0.247-0.164c-0.277-0.178-0.56-0.355-0.857-0.526c-8.655-4.997-22.644-4.997-31.243,0
			c-0.292,0.17-0.57,0.344-0.842,0.521c-0.083,0.054-0.163,0.108-0.243,0.162c-0.193,0.13-0.381,0.261-0.563,0.394
			c-0.079,0.058-0.16,0.115-0.237,0.173c-0.237,0.179-0.467,0.36-0.685,0.544c-0.048,0.041-0.093,0.083-0.14,0.124
			c-0.17,0.147-0.334,0.296-0.493,0.446c-0.086,0.081-0.168,0.163-0.25,0.246c-0.113,0.113-0.222,0.227-0.329,0.342
			c-0.083,0.09-0.168,0.179-0.247,0.27c-0.11,0.125-0.212,0.251-0.314,0.378c-0.13,0.161-0.253,0.324-0.37,0.488
			c-0.063,0.088-0.127,0.176-0.187,0.265c-0.082,0.122-0.16,0.246-0.236,0.369c-0.045,0.074-0.088,0.148-0.131,0.222
			c-0.262,0.455-0.479,0.918-0.65,1.385c-0.016,0.043-0.033,0.087-0.048,0.13c-0.053,0.152-0.1,0.304-0.144,0.457
			c-0.013,0.046-0.025,0.093-0.037,0.139c-0.089,0.336-0.157,0.673-0.2,1.011c0.11,0.894,0.376,1.782,0.812,2.65
			c0.028,0.056,0.064,0.111,0.094,0.167c1.017-1.916,2.829-3.721,5.44-5.238c8.599-4.997,22.588-4.997,31.243,0
			c2.667,1.54,4.513,3.374,5.544,5.322c-0.286,0.539-0.634,1.07-1.045,1.588c0.446-0.559,0.82-1.133,1.118-1.717
			c0.447-0.878,0.72-1.779,0.832-2.686C80.723,133.04,80.655,132.707,80.568,132.376z"/>
		<g id="iPad">
			<path style="fill:#747474;" d="M278.091,124.577c0.101,0.059,0.193,0.12,0.278,0.185l-13.72,1.664l-32.152-18.563l-48.837,28.381
				l-18.933,2.297l66.196-38.469c1.299-0.755,3.413-0.755,4.721,0L278.091,124.577z"/>
			<path style="fill:#535353;" d="M278.303,124.699c1.19,0.687,1.196,1.803,0.014,2.49l-69.673,40.49
				c-1.185,0.688-3.108,0.687-4.298,0l-42.869-24.75c-1.19-0.687-1.199-1.801-0.014-2.49l3.266-1.898l18.934-2.296l32.15,18.562
				l48.837-28.381l13.72-1.664c-0.085-0.065-0.177-0.127-0.278-0.185L278.303,124.699z M187.696,152.522
				c1.972,1.139,5.16,1.137,7.119-0.001c1.957-1.137,1.949-2.984-0.023-4.122c-1.972-1.139-5.16-1.137-7.117,0
				C185.716,149.537,185.724,151.384,187.696,152.522"/>
			<path style="fill:#747474;" d="M194.792,148.399c1.972,1.139,1.98,2.985,0.023,4.122c-1.96,1.139-5.147,1.14-7.119,0.001
				c-1.972-1.139-1.98-2.985-0.021-4.124C189.632,147.261,192.82,147.26,194.792,148.399z"/>
			<polygon style="fill:#D3DDF5;" points="264.649,126.426 183.661,136.244 215.813,154.807 183.662,136.245 232.497,107.863 			"/>
			<polygon style="fill:#B8C6F2;" points="264.649,126.426 215.813,154.807 183.661,136.244 			"/>
			<path style="fill:#494949;" d="M279.199,125.952c0,0.056-0.005,0.111-0.014,0.167c-0.003,0.018-0.009,0.035-0.013,0.052
				c-0.008,0.038-0.016,0.076-0.028,0.113c-0.007,0.022-0.018,0.043-0.027,0.064c-0.013,0.033-0.025,0.066-0.041,0.098
				c-0.012,0.024-0.028,0.047-0.041,0.07c-0.017,0.029-0.033,0.059-0.053,0.088c-0.056,0.081-0.126,0.16-0.204,0.236
				c-0.015,0.014-0.028,0.029-0.044,0.043c-0.067,0.062-0.14,0.122-0.222,0.18c-0.061,0.043-0.126,0.085-0.196,0.126l-69.673,40.49
				c-0.142,0.082-0.295,0.154-0.456,0.216c-0.034,0.013-0.071,0.023-0.105,0.036c-0.114,0.041-0.232,0.077-0.353,0.108
				c-0.106,0.027-0.215,0.048-0.324,0.068c-0.093,0.017-0.184,0.036-0.279,0.048c-0.038,0.005-0.077,0.008-0.116,0.012
				c-0.161,0.016-0.324,0.026-0.488,0.027c-0.011,0-0.022,0.001-0.033,0.001c-0.172,0-0.343-0.012-0.513-0.029
				c-0.04-0.004-0.079-0.008-0.118-0.013c-0.099-0.012-0.195-0.032-0.292-0.05c-0.11-0.02-0.219-0.043-0.324-0.07
				c-0.11-0.029-0.217-0.061-0.322-0.098c-0.043-0.015-0.088-0.029-0.13-0.045c-0.156-0.061-0.306-0.13-0.445-0.21l-42.869-24.75
				c-0.076-0.044-0.147-0.09-0.214-0.137c-0.006-0.004-0.01-0.008-0.015-0.012c-0.076-0.055-0.145-0.113-0.208-0.172
				c-0.017-0.016-0.033-0.032-0.049-0.048c-0.076-0.076-0.143-0.154-0.198-0.235c-0.02-0.029-0.036-0.058-0.053-0.087
				c-0.013-0.023-0.028-0.045-0.039-0.068c-0.016-0.033-0.028-0.066-0.041-0.098c-0.008-0.021-0.019-0.043-0.026-0.064
				c-0.012-0.037-0.02-0.074-0.027-0.111c-0.004-0.018-0.01-0.036-0.013-0.055c-0.009-0.055-0.014-0.111-0.013-0.167l-0.009,3.009
				c0,0.056,0.004,0.111,0.013,0.167c0.003,0.018,0.009,0.036,0.013,0.054c0.008,0.037,0.016,0.074,0.028,0.111
				c0.007,0.022,0.017,0.043,0.026,0.064c0.013,0.033,0.025,0.066,0.041,0.099c0.012,0.023,0.026,0.046,0.04,0.068
				c0.015,0.026,0.028,0.052,0.045,0.078c0.002,0.003,0.005,0.006,0.007,0.009c0.055,0.08,0.122,0.158,0.198,0.234
				c0.008,0.008,0.013,0.017,0.021,0.025c0.008,0.008,0.02,0.015,0.028,0.023c0.063,0.059,0.131,0.116,0.207,0.171
				c0.005,0.003,0.008,0.007,0.013,0.011c0.001,0.001,0.002,0.002,0.004,0.002c0.066,0.047,0.138,0.093,0.214,0.137l42.869,24.75
				c0.022,0.013,0.044,0.025,0.067,0.038c0.104,0.056,0.213,0.108,0.326,0.154c0.017,0.007,0.035,0.011,0.052,0.018
				c0.042,0.017,0.086,0.03,0.129,0.045c0.072,0.025,0.142,0.054,0.217,0.075c0.034,0.01,0.071,0.014,0.106,0.023
				c0.106,0.028,0.215,0.05,0.325,0.07c0.056,0.01,0.109,0.027,0.166,0.036c0.041,0.006,0.084,0.009,0.126,0.014
				c0.04,0.005,0.079,0.009,0.119,0.013c0.17,0.017,0.341,0.028,0.512,0.029c0.011,0,0.022-0.001,0.033-0.001
				c0.163-0.001,0.326-0.011,0.487-0.027c0.039-0.004,0.078-0.007,0.117-0.012c0.033-0.004,0.066-0.006,0.099-0.01
				c0.061-0.009,0.119-0.026,0.179-0.037c0.11-0.02,0.219-0.04,0.325-0.068c0.029-0.007,0.06-0.01,0.088-0.018
				c0.092-0.026,0.178-0.058,0.266-0.09c0.034-0.012,0.07-0.022,0.104-0.035c0.01-0.004,0.021-0.006,0.031-0.01
				c0.114-0.046,0.224-0.096,0.328-0.152c0.033-0.018,0.065-0.036,0.097-0.054l69.673-40.49c0.067-0.039,0.13-0.079,0.189-0.12
				c0.002-0.002,0.004-0.004,0.007-0.005c0.082-0.058,0.155-0.118,0.222-0.18c0.007-0.006,0.015-0.012,0.022-0.018
				c0.009-0.008,0.013-0.017,0.022-0.025c0.078-0.076,0.148-0.155,0.204-0.236c0.001-0.001,0.002-0.002,0.003-0.003
				c0.02-0.029,0.035-0.059,0.052-0.088c0.013-0.022,0.028-0.044,0.039-0.066c0.016-0.032,0.028-0.065,0.041-0.097
				c0.009-0.022,0.02-0.043,0.027-0.065c0.012-0.037,0.019-0.073,0.028-0.11c0.004-0.018,0.01-0.036,0.013-0.055
				c0.009-0.055,0.014-0.111,0.014-0.166L279.199,125.952L279.199,125.952C279.199,125.952,279.199,125.952,279.199,125.952z"/>
		</g>
		<g id="Glasses">
			<path style="fill:#595959;" d="M145.601,161.349c-0.126-0.202-3.198-4.933-13.796-4.048c-8.46,0.705-23.546,1.712-27.986,2.005
				c-4.088-0.421-6.966,2.458-6.981,7.742c-0.016,5.583,4.006,12.439,8.985,15.313c6.28,3.626,11.389,0.855,11.409-6.189
				l-0.002,0.811l0.543-4.474c0.112-0.835,0.774-1.181,1.583-0.722l0.034,0.02c0.808,0.475,1.467,1.584,1.573,2.544l0.515,5.085
				l0.002-0.811c-0.02,7.044,5.054,15.693,11.336,19.32c4.977,2.873,9.024,0.676,9.04-4.907c0.003-1.016-0.103-2.066-0.301-3.129
				c-0.33-2.125-2.062-13.318-2.891-19.439c-0.616-4.542-1.95-7.389-3.966-8.46c-1.651-0.878-3.068-0.226-3.224-0.149
				c-0.528,0.261-0.755,0.905-0.494,1.434c0.261,0.529,0.891,0.75,1.419,0.489c0.025-0.011,0.627-0.267,1.338,0.132
				c0.762,0.428,2.142,1.886,2.814,6.842c0.392,2.894,0.985,6.914,1.537,10.579c-2.005-3.178-4.656-5.937-7.566-7.618
				l-21.823-12.599c6.506-0.439,16.822-1.153,23.286-1.692c9.174-0.761,11.789,3.023,11.807,3.049
				c0.202,0.325,0.55,0.503,0.907,0.503c0.192,0,0.387-0.052,0.563-0.161C145.759,162.507,145.913,161.85,145.601,161.349z
				 M129.59,176.074c1.271,0.734,2.521,1.722,3.694,2.908c0.533,0.539,1.026,1.034,1.494,1.522l0.002-0.001
				c0.088,0.092,0.173,0.184,0.26,0.276c0.048,0.052,0.099,0.104,0.146,0.156c0.161,0.175,0.318,0.351,0.473,0.528
				c0.051,0.059,0.102,0.119,0.152,0.178c0.12,0.141,0.238,0.285,0.354,0.43c0.044,0.055,0.088,0.109,0.132,0.165
				c0.151,0.194,0.299,0.392,0.444,0.598c0.032,0.045,0.063,0.093,0.095,0.14c0.118,0.171,0.234,0.348,0.349,0.53
				c0.04,0.064,0.08,0.128,0.12,0.193c0.141,0.233,0.281,0.471,0.418,0.725c1.144,2.13,1.936,5.388,1.996,5.773l0.004,0.027
				l0.005,0.027c0.181,0.976,0.272,1.913,0.27,2.784c-0.004,1.297-0.309,4.314-3.058,4.314c-0.939,0-2.042-0.35-3.19-1.013
				c-2.764-1.596-5.376-4.333-7.357-7.709c-0.201-0.343-0.395-0.694-0.583-1.048c-0.013-0.025-0.027-0.05-0.041-0.076
				c-1.638-3.097-2.749-6.513-2.797-8.871c-0.034-1.682-0.157-4.484-0.157-4.484c-0.109-0.98-0.549-1.982-1.181-2.781
				L129.59,176.074z M118.878,169.738c-0.069-0.005-0.138-0.014-0.207-0.014c-1.415,0-2.544,1.045-2.743,2.54l-0.001,0.011
				l-0.001,0.011c0,0-0.127,3.394-0.182,3.881c-0.562,5.03-3.417,5.927-4.719,5.927c-1.271,0-2.748-0.465-4.271-1.344
				c-0.268-0.155-0.532-0.324-0.794-0.505c-0.095-0.066-0.188-0.141-0.282-0.21c-0.165-0.121-0.33-0.24-0.491-0.371
				c-0.115-0.093-0.226-0.194-0.339-0.292c-0.137-0.118-0.274-0.233-0.409-0.357c-0.123-0.114-0.242-0.236-0.363-0.355
				c-0.119-0.118-0.239-0.233-0.356-0.355c-0.126-0.132-0.247-0.27-0.37-0.408c-0.106-0.118-0.213-0.235-0.316-0.356
				c-0.125-0.147-0.246-0.3-0.367-0.452c-0.095-0.12-0.191-0.238-0.284-0.36c-0.121-0.16-0.237-0.323-0.354-0.487
				c-0.087-0.122-0.174-0.243-0.258-0.367c-0.114-0.169-0.224-0.34-0.333-0.512c-0.052-0.082-0.108-0.162-0.159-0.245l0.004-0.003
				c-1.583-2.578-2.591-5.506-2.583-8.062c0.008-2.675,0.769-4.156,1.691-4.97c0.182-0.161,0.393-0.307,0.625-0.436
				c1.336-0.744,2.978-0.676,4.312,0.072L118.878,169.738z"/>
			<path style="fill:#BDCCF9;" d="M106.754,180.75c1.523,0.879,3,1.344,4.271,1.344c1.302,0,4.157-0.897,4.719-5.927
				c0.054-0.487,0.182-3.881,0.182-3.881l0.001-0.011l0.001-0.011c0.2-1.496,1.328-2.541,2.744-2.541
				c0.069,0,0.138,0.009,0.207,0.014l-4.535-2.683l-13.065,8.064C102.727,177.478,104.661,179.542,106.754,180.75z"/>
			<path style="fill:#D9E3FC;" d="M114.344,167.055l4.535,2.683l-13.551-8.017c-1.334-0.748-2.976-0.817-4.312-0.072
				c-0.231,0.129-0.443,0.275-0.625,0.436c-0.922,0.813-1.683,2.295-1.691,4.97c-0.007,2.556,1.001,5.484,2.583,8.062
				L114.344,167.055z"/>
			<path style="fill:#D9E3FC;" d="M125.215,186.406l9.562-5.902c-0.468-0.489-0.961-0.984-1.494-1.522
				c-1.173-1.186-2.423-2.174-3.694-2.908l-7.959-4.709c0.633,0.8,1.073,1.801,1.181,2.781c0,0,0.123,2.802,0.157,4.484
				c0.048,2.358,1.159,5.774,2.797,8.871C125.575,187.14,125.391,186.774,125.215,186.406z"/>
			<path style="fill:#BDCCF9;" d="M126.39,188.625c1.981,3.376,4.593,6.114,7.357,7.709c1.148,0.663,2.251,1.013,3.19,1.013
				c2.749,0,3.055-3.017,3.058-4.314c0.002-0.871-0.088-1.808-0.27-2.784l-0.005-0.027l-0.004-0.027
				c-0.06-0.385-0.851-3.643-1.996-5.773c-0.863-1.605-1.817-2.743-2.942-3.919l-9.564,5.903
				C125.576,187.161,125.969,187.908,126.39,188.625z"/>
		</g>
	</g>
</g>
<rect style="fill:none;" width="301" height="229"/>
</svg>
