<?xml version="1.0" encoding="iso-8859-1"?>
<!-- Generator: Adobe Illustrator 20.1.0, SVG Export Plug-In . SVG Version: 6.00 Build 0)  -->
<!DOCTYPE svg PUBLIC "-//W3C//DTD SVG 1.1//EN" "http://www.w3.org/Graphics/SVG/1.1/DTD/svg11.dtd">
<svg version="1.1" id="Layer_1" xmlns="http://www.w3.org/2000/svg" xmlns:xlink="http://www.w3.org/1999/xlink" x="0px" y="0px"
	 viewBox="0 0 301 229" style="enable-background:new 0 0 301 229;" xml:space="preserve">
<rect style="fill:none;" width="301" height="229"/>
<g>
	<g>
		<g style="enable-background:new    ;">
			<g>
				<path style="fill:#FFE1DC;" d="M256.613,69.47c-58.916-36.504-154.125-36.504-212.658,0.001s-58.222,95.69,0.693,132.195
					s154.125,36.504,212.658-0.001S315.529,105.974,256.613,69.47"/>
			</g>
		</g>
	</g>
	<g id="Monkey_wrench_1_">
		<path style="fill:#7A7A79;" d="M248.078,160.963l0.063,2.386c0.036,1.36,0.586,2.635,1.535,3.771l-0.063-2.386
			C248.665,163.598,248.114,162.323,248.078,160.963z"/>
		<path style="fill:#7A7A79;" d="M200.085,196.592l0.063,2.386c-0.018-0.7,0.427-1.413,1.34-1.969
			c1.814-1.105,4.787-1.174,6.639-0.156c0.92,0.506,1.391,1.186,1.409,1.877l-0.063-2.386c-0.018-0.691-0.489-1.371-1.409-1.877
			c-1.852-1.019-4.825-0.949-6.639,0.156C200.513,195.179,200.067,195.891,200.085,196.592z"/>
		<path style="fill:#7A7A79;" d="M279.635,160.131c0.008,0.287-0.008,0.578-0.047,0.873c-0.291,2.194-1.943,4.205-4.461,5.739
			c-2.598,1.582-6.117,2.656-10.017,2.9c-2.826,0.176-5.514-0.085-7.888-0.681l-44.919,30.547
			c-4.023,2.45-10.229,2.818-13.861,0.819c-1.658-0.912-2.493-2.16-2.527-3.479l0.063,2.386c0.035,1.32,0.869,2.567,2.527,3.479
			c3.632,1.999,9.839,1.631,13.861-0.819l44.919-30.547c2.374,0.596,5.062,0.857,7.888,0.681c3.9-0.244,7.419-1.318,10.017-2.9
			c2.518-1.534,4.17-3.545,4.461-5.739c0.039-0.294,0.054-0.585,0.047-0.873L279.635,160.131z"/>
		<path style="fill:#939393;" d="M249.614,164.733c-0.96-1.148-1.512-2.439-1.536-3.816c-0.047-2.523,1.677-4.848,4.502-6.569
			c1.47-0.895,3.237-1.626,5.208-2.137l0.133,7.703c0.029,1.439,2.066,2.56,4.551,2.504l2.835-0.069
			c1.241-0.029,2.36-0.347,3.166-0.838c0.806-0.491,1.299-1.155,1.288-1.874l-0.141-7.703c6.221,1.307,10.526,4.868,9.968,9.07
			c-0.291,2.194-1.943,4.205-4.461,5.739c-2.598,1.582-6.117,2.656-10.017,2.9c-2.826,0.176-5.514-0.085-7.888-0.681l-44.919,30.547
			c-4.023,2.45-10.229,2.818-13.861,0.819c-3.632-1.998-3.313-5.605,0.71-8.055L249.614,164.733z M208.133,198.313
			c1.814-1.105,1.783-2.827-0.068-3.846c-1.852-1.019-4.825-0.949-6.639,0.156c-1.814,1.105-1.783,2.827,0.069,3.846
			C203.346,199.488,206.319,199.418,208.133,198.313"/>
		<path id="Monkey_wrench_highlight_2_1_" style="display:none;fill:#FFFFFF;" d="M217.1,191.989c-0.224,0-0.442-0.111-0.571-0.314
			c-0.2-0.315-0.106-0.732,0.209-0.932l33.702-21.345c0.315-0.199,0.732-0.106,0.931,0.209c0.2,0.315,0.106,0.732-0.209,0.932
			l-33.702,21.345C217.348,191.955,217.223,191.989,217.1,191.989z"/>
		<path id="Monkey_wrench_highlight_1_1_" style="display:none;fill:#FFFFFF;" d="M263.702,167.575
			c-1.765,0-3.505-0.206-5.103-0.607c-0.361-0.091-0.581-0.458-0.49-0.819c0.091-0.362,0.458-0.58,0.819-0.49
			c1.888,0.475,3.997,0.658,6.098,0.526c2.911-0.182,5.645-0.971,7.698-2.221c1.897-1.155,3.05-2.611,3.248-4.099
			c0.049-0.37,0.39-0.631,0.758-0.581c0.37,0.049,0.629,0.388,0.58,0.758c-0.252,1.901-1.631,3.703-3.884,5.075
			c-2.237,1.362-5.19,2.22-8.316,2.416C264.641,167.561,264.171,167.575,263.702,167.575z"/>
	</g>
	<polygon style="fill:#F8F8F8;" points="118.545,39.452 175.894,72.562 175.851,87.83 118.501,54.719 	"/>
	<polygon style="fill:#B6A4A4;" points="42.512,83.637 118.545,39.452 118.501,54.719 42.469,98.904 	"/>
	<polygon style="fill:#F2EDED;" points="179.892,88.836 99.277,135.685 38.472,100.579 119.087,53.73 	"/>
	<polygon style="fill:#B6A4A4;" points="179.892,88.836 179.888,90.363 99.272,137.212 99.277,135.685 	"/>
	<polygon style="fill:#DBCECE;" points="99.277,135.685 99.272,137.212 38.467,102.106 38.472,100.579 	"/>
	<path style="fill:#B663CA;" d="M108.837,49.046c1.552-0.896,3.952-1.066,5.822-0.413l1.346,0.469
		c3.132,1.095,6.164,2.273,9.087,3.53c-2.653,0.228-5.079,0.858-7.029,1.828l-15.673,7.422l3.858,1.251l12.928,6.213
		c0.164,0.104,0.328,0.212,0.503,0.313c0.13,0.076,0.266,0.145,0.399,0.216l10.674,7.496l2.15,2.241l12.327-8.677
		c0.094-0.051,0.186-0.098,0.278-0.151c1.966-1.135,3.144-2.589,3.57-4.187c2.11,1.664,4.09,3.389,5.93,5.169l0.808,0.783
		c1.12,1.085,0.82,2.475-0.732,3.371l-54.995,31.751c-0.354,0.204-0.924,0.204-1.275,0L53.838,81.536
		c-0.352-0.204-0.35-0.534,0.004-0.739L108.837,49.046z M102.374,81.917c1.13-0.652,1.136-1.709,0.013-2.362
		c-1.12-0.651-2.944-0.651-4.074,0.002c-1.127,0.651-1.133,1.708-0.013,2.358C99.423,82.567,101.247,82.567,102.374,81.917
		 M92.026,87.891c1.13-0.652,1.136-1.709,0.013-2.361c-1.12-0.651-2.944-0.651-4.074,0.001c-1.127,0.651-1.133,1.708-0.013,2.358
		C89.074,88.542,90.898,88.542,92.026,87.891 M113.308,75.604c1.127-0.651,1.133-1.708,0.011-2.36c-1.12-0.651-2.944-0.651-4.072,0
		c-1.13,0.652-1.136,1.709-0.016,2.36C110.353,76.257,112.178,76.257,113.308,75.604"/>
	<path style="fill:#F2EDED;" d="M109.247,73.244c-1.13,0.652-1.136,1.709-0.016,2.36c1.123,0.652,2.947,0.652,4.077,0
		c1.127-0.651,1.133-1.708,0.011-2.36C112.198,72.593,110.374,72.593,109.247,73.244z"/>
	<path style="fill:#F2EDED;" d="M87.964,85.531c-1.127,0.651-1.133,1.708-0.013,2.358c1.123,0.652,2.947,0.652,4.074,0.002
		c1.13-0.652,1.136-1.709,0.013-2.362C90.919,84.879,89.095,84.879,87.964,85.531z"/>
	<path style="fill:#F2EDED;" d="M98.313,79.557c-1.127,0.651-1.133,1.708-0.013,2.358c1.123,0.652,2.947,0.652,4.074,0.002
		c1.13-0.652,1.136-1.709,0.013-2.362C101.267,78.904,99.443,78.904,98.313,79.557z"/>
	<path style="fill:#A359B5;" d="M53.575,81.17c0,0.031,0.006,0.062,0.016,0.093c0.001,0.003,0.002,0.007,0.003,0.01
		c0.01,0.028,0.025,0.056,0.043,0.084c0.003,0.005,0.006,0.01,0.01,0.015c0.02,0.027,0.044,0.054,0.072,0.079
		c0.019,0.017,0.042,0.032,0.064,0.048c0.019,0.013,0.034,0.027,0.055,0.039l44.973,26.136l0.047,16.738L53.885,98.274
		c-0.004-0.002-0.007-0.004-0.011-0.006c-0.017-0.01-0.029-0.022-0.045-0.033c-0.022-0.016-0.045-0.031-0.064-0.047
		c-0.002-0.002-0.004-0.003-0.006-0.005c-0.021-0.02-0.04-0.04-0.056-0.06c-0.004-0.005-0.006-0.009-0.009-0.014
		c-0.004-0.005-0.007-0.01-0.01-0.015c-0.006-0.008-0.012-0.017-0.017-0.025c-0.01-0.017-0.018-0.034-0.024-0.051
		c-0.001-0.003-0.001-0.005-0.002-0.008c-0.001-0.003-0.002-0.006-0.003-0.01c-0.003-0.011-0.007-0.022-0.01-0.033
		c-0.003-0.017-0.005-0.034-0.006-0.052c0-0.003,0-0.005,0-0.008l0,0L53.575,81.17z"/>
	<path style="fill:#6E3C7A;" d="M99.087,107.779c0.014,0.004,0.029,0.008,0.043,0.011c0.1,0.022,0.205,0.035,0.311,0.035
		c0.004,0,0.008,0,0.012,0c0.111,0,0.222-0.013,0.328-0.037c0.004-0.001,0.008-0.002,0.012-0.003
		c0.106-0.026,0.206-0.063,0.293-0.113l54.995-31.751c0.927-0.535,1.408-1.247,1.406-1.964l0.047,16.738
		c0.002,0.717-0.479,1.429-1.406,1.964l0,0l-54.995,31.751c-0.041,0.024-0.085,0.044-0.131,0.063
		c-0.035,0.014-0.072,0.026-0.11,0.037c-0.017,0.005-0.035,0.009-0.053,0.013c-0.004,0.001-0.008,0.002-0.013,0.003
		c-0.01,0.002-0.019,0.005-0.029,0.007c-0.029,0.006-0.059,0.011-0.089,0.016c-0.029,0.004-0.058,0.007-0.087,0.01
		c-0.029,0.002-0.059,0.004-0.089,0.005c-0.011,0-0.022,0-0.033,0c-0.004,0-0.008,0-0.012,0c-0.016,0-0.032,0-0.047,0
		c-0.033-0.001-0.067-0.003-0.1-0.007c-0.039-0.004-0.077-0.009-0.115-0.016c-0.017-0.003-0.033-0.009-0.049-0.012
		c-0.015-0.003-0.029-0.007-0.043-0.011c-0.026-0.007-0.053-0.011-0.078-0.019c-0.071-0.023-0.138-0.052-0.198-0.087l-0.047-16.738
		C98.893,107.719,98.988,107.753,99.087,107.779z"/>
	<polygon style="fill:#B6A4A4;" points="175.894,72.562 175.851,87.83 99.818,132.015 99.862,116.748 	"/>
	<polygon style="fill:#FFFFFF;" points="99.862,116.748 99.818,132.015 42.469,98.904 42.512,83.637 	"/>
	<g>
		<path style="fill:#F7F7F7;" d="M61.621,140.663c0.404-0.233,1.057-0.233,1.458,0l63.539,36.925
			c0.401,0.233,0.399,0.611-0.005,0.844l-40.586,23.432c-0.405,0.234-1.058,0.234-1.459,0.001L21.029,164.94
			c-0.401-0.233-0.399-0.611,0.006-0.845L61.621,140.663z"/>
		<path style="fill:#E2DCDC;" d="M47.219,171.041c-0.405,0.234-0.407,0.612-0.006,0.845l1.212,0.705
			c0.402,0.234,1.056,0.234,1.461,0l26.083-15.059c0.405-0.234,0.407-0.612,0.005-0.846l-1.212-0.705
			c-0.401-0.233-1.054-0.233-1.459,0.001L47.219,171.041z"/>
		<path style="fill:#E2DCDC;" d="M54.701,175.389c-0.405,0.234-0.407,0.612-0.005,0.846l1.212,0.705
			c0.401,0.233,1.054,0.233,1.459-0.001L83.45,161.88c0.405-0.234,0.407-0.612,0.006-0.845l-1.212-0.705
			c-0.402-0.234-1.056-0.234-1.461,0L54.701,175.389z"/>
		<path style="fill:#E2DCDC;" d="M62.184,179.738c-0.405,0.234-0.407,0.612-0.006,0.845l1.212,0.705
			c0.402,0.234,1.056,0.234,1.461,0l26.083-15.059c0.405-0.234,0.407-0.612,0.005-0.846l-1.212-0.705
			c-0.401-0.233-1.054-0.233-1.459,0.001L62.184,179.738z"/>
		<path style="fill:#E2DCDC;" d="M69.666,184.086c-0.405,0.234-0.407,0.612-0.006,0.845l1.214,0.705
			c0.401,0.233,1.054,0.233,1.459-0.001l26.083-15.059c0.405-0.234,0.407-0.612,0.006-0.845l-1.214-0.705
			c-0.401-0.233-1.054-0.233-1.459,0.001L69.666,184.086z"/>
		<path style="fill:#D1C3C3;" d="M21.029,164.94L21.029,164.94l63.539,36.925c0.038,0.022,0.081,0.04,0.123,0.058
			c0.072,0.03,0.148,0.056,0.228,0.074c0.008,0.002,0.017,0.003,0.025,0.004c0.089,0.019,0.182,0.029,0.276,0.033
			c0.018,0.001,0.035,0.003,0.053,0.003c0.033,0,0.066-0.002,0.099-0.003c0.033-0.001,0.066-0.002,0.098-0.006
			c0.033-0.003,0.065-0.009,0.097-0.014c0.032-0.005,0.064-0.009,0.096-0.016c0.031-0.007,0.061-0.016,0.092-0.025
			c0.03-0.009,0.061-0.017,0.09-0.027c0.029-0.011,0.056-0.024,0.084-0.036c0.033-0.015,0.068-0.029,0.098-0.046l40.586-23.432
			c0.045-0.026,0.084-0.055,0.119-0.084c0.009-0.008,0.018-0.016,0.027-0.024c0.026-0.024,0.048-0.049,0.068-0.075
			c0.006-0.008,0.013-0.015,0.018-0.022c0.022-0.032,0.038-0.065,0.05-0.098c0.014-0.04,0.023-0.081,0.022-0.122l0.002,0.841
			c0,0.041-0.008,0.082-0.022,0.122c-0.001,0.002,0,0.004-0.001,0.007c-0.012,0.031-0.029,0.061-0.049,0.091
			c-0.005,0.008-0.012,0.015-0.018,0.022c-0.012,0.016-0.024,0.033-0.039,0.049c-0.009,0.009-0.02,0.017-0.029,0.026
			c-0.009,0.008-0.017,0.016-0.027,0.024c-0.035,0.029-0.074,0.058-0.119,0.084l-40.586,23.432c-0.01,0.006-0.021,0.012-0.032,0.018
			c-0.021,0.011-0.045,0.019-0.066,0.029c-0.028,0.012-0.055,0.026-0.084,0.036c-0.029,0.011-0.059,0.019-0.089,0.027
			c-0.031,0.009-0.061,0.018-0.092,0.025c-0.031,0.007-0.063,0.011-0.095,0.016c-0.032,0.005-0.064,0.011-0.097,0.014
			c-0.032,0.003-0.065,0.004-0.098,0.006c-0.033,0.001-0.066,0.003-0.099,0.003c-0.008,0-0.015,0.001-0.023,0.001
			c-0.01,0-0.02-0.003-0.03-0.004c-0.094-0.004-0.187-0.014-0.276-0.033c-0.006-0.001-0.013-0.001-0.019-0.002
			c-0.002,0-0.004-0.002-0.006-0.002c-0.08-0.018-0.156-0.044-0.228-0.075c-0.008-0.003-0.017-0.005-0.025-0.008
			c-0.034-0.015-0.067-0.032-0.098-0.05l-63.539-36.925l0,0c-0.199-0.116-0.299-0.267-0.299-0.419l-0.002-0.841
			C20.73,164.673,20.83,164.825,21.029,164.94z"/>
		<polyline style="fill:#9DB1CE;" points="42.465,167.191 38.041,164.637 37.077,165.197 41.501,167.752 42.465,167.191 		"/>
		<polyline style="fill:#9DB1CE;" points="47.4,164.323 42.976,161.769 42.075,162.292 45.044,164.006 45.031,164.014 
			40.223,163.369 39.265,163.925 43.69,166.48 44.59,165.956 41.628,164.246 41.641,164.239 46.436,164.884 47.4,164.323 		"/>
		<polyline style="fill:#9DB1CE;" points="47.708,159.019 46.706,159.601 48.825,161.972 48.813,161.979 44.72,160.755 
			43.724,161.334 49.576,163.059 50.667,162.425 47.708,159.019 		"/>
		<path style="fill:#9DB1CE;" d="M51.458,159.421c-0.773-0.446-1.196-1.065-0.327-1.57c0.869-0.505,1.946-0.265,2.718,0.181
			c0.741,0.428,1.158,1.051,0.289,1.556C53.27,160.092,52.199,159.848,51.458,159.421 M54.814,157.471
			c-1.315-0.759-3.136-0.885-4.5-0.092c-1.364,0.793-1.141,1.847,0.174,2.606c1.283,0.741,3.104,0.866,4.468,0.074
			C56.32,159.266,56.097,158.212,54.814,157.471"/>
		<polyline style="fill:#9DB1CE;" points="59.008,157.578 54.584,155.023 53.613,155.587 58.038,158.142 59.008,157.578 		"/>
		<path style="fill:#9DB1CE;" d="M62.429,153.615l-0.939,0.546c0.511,0.376,0.59,0.811,0,1.154c-0.869,0.505-1.94,0.262-2.68-0.166
			c-0.773-0.446-1.196-1.065-0.327-1.57c0.482-0.28,1.239-0.328,1.743-0.111l0.932-0.542c-1.136-0.523-2.522-0.383-3.493,0.181
			c-1.364,0.793-1.141,1.847,0.174,2.606c1.283,0.741,3.104,0.866,4.468,0.074C63.386,155.159,63.438,154.308,62.429,153.615"/>
		<polyline style="fill:#9DB1CE;" points="68.504,152.059 67.687,151.587 65.314,152.966 64.229,152.339 66.36,151.101 
			65.607,150.666 63.476,151.904 62.524,151.355 64.846,150.006 64.029,149.534 60.737,151.447 65.161,154.002 68.504,152.059 		"/>
	</g>
	<g>
		<path style="fill:#F7F7F7;" d="M86.621,140.663c0.404-0.233,1.057-0.233,1.458,0l63.539,36.925
			c0.401,0.233,0.399,0.611-0.005,0.844l-40.586,23.432c-0.405,0.234-1.058,0.234-1.459,0.001L46.029,164.94
			c-0.401-0.233-0.399-0.611,0.006-0.845L86.621,140.663z"/>
		<path style="fill:#E2DCDC;" d="M72.219,171.041c-0.405,0.234-0.407,0.612-0.006,0.845l1.212,0.705
			c0.402,0.234,1.056,0.234,1.461,0l26.083-15.059c0.405-0.234,0.407-0.612,0.005-0.846l-1.212-0.705
			c-0.401-0.233-1.054-0.233-1.459,0.001L72.219,171.041z"/>
		<path style="fill:#E2DCDC;" d="M79.701,175.389c-0.405,0.234-0.407,0.612-0.005,0.846l1.212,0.705
			c0.401,0.233,1.054,0.233,1.459-0.001l26.083-15.059c0.405-0.234,0.407-0.612,0.006-0.845l-1.212-0.705
			c-0.402-0.234-1.056-0.234-1.461,0L79.701,175.389z"/>
		<path style="fill:#E2DCDC;" d="M87.184,179.738c-0.405,0.234-0.407,0.612-0.006,0.845l1.212,0.705
			c0.402,0.234,1.056,0.234,1.461,0l26.083-15.059c0.405-0.234,0.407-0.612,0.005-0.846l-1.212-0.705
			c-0.401-0.233-1.054-0.233-1.459,0.001L87.184,179.738z"/>
		<path style="fill:#E2DCDC;" d="M94.666,184.086c-0.405,0.234-0.407,0.612-0.006,0.845l1.214,0.705
			c0.401,0.233,1.054,0.233,1.459-0.001l26.083-15.059c0.405-0.234,0.407-0.612,0.006-0.845l-1.214-0.705
			c-0.401-0.233-1.054-0.233-1.459,0.001L94.666,184.086z"/>
		<path style="fill:#D1C3C3;" d="M46.029,164.94L46.029,164.94l63.539,36.925c0.038,0.022,0.081,0.04,0.123,0.058
			c0.072,0.03,0.148,0.056,0.228,0.074c0.008,0.002,0.017,0.003,0.025,0.004c0.089,0.019,0.182,0.029,0.276,0.033
			c0.018,0.001,0.035,0.003,0.053,0.003c0.033,0,0.066-0.002,0.099-0.003c0.033-0.001,0.066-0.002,0.098-0.006
			c0.033-0.003,0.065-0.009,0.097-0.014c0.032-0.005,0.064-0.009,0.096-0.016c0.031-0.007,0.061-0.016,0.092-0.025
			c0.03-0.009,0.061-0.017,0.09-0.027c0.029-0.011,0.056-0.024,0.084-0.036c0.033-0.015,0.068-0.029,0.098-0.046l40.586-23.432
			c0.045-0.026,0.084-0.055,0.119-0.084c0.009-0.008,0.018-0.016,0.027-0.024c0.026-0.024,0.048-0.049,0.068-0.075
			c0.006-0.008,0.013-0.015,0.018-0.022c0.022-0.032,0.038-0.065,0.05-0.098c0.014-0.04,0.023-0.081,0.022-0.122l0.002,0.841
			c0,0.041-0.008,0.082-0.022,0.122c-0.001,0.002,0,0.004-0.001,0.007c-0.012,0.031-0.029,0.061-0.049,0.091
			c-0.005,0.008-0.012,0.015-0.018,0.022c-0.012,0.016-0.024,0.033-0.039,0.049c-0.009,0.009-0.02,0.017-0.029,0.026
			c-0.009,0.008-0.018,0.016-0.027,0.024c-0.035,0.029-0.074,0.058-0.119,0.084l-40.586,23.432c-0.01,0.006-0.021,0.012-0.032,0.018
			c-0.021,0.011-0.045,0.019-0.066,0.029c-0.028,0.012-0.055,0.026-0.084,0.036c-0.029,0.011-0.059,0.019-0.089,0.027
			c-0.031,0.009-0.061,0.018-0.092,0.025c-0.031,0.007-0.063,0.011-0.095,0.016c-0.032,0.005-0.064,0.011-0.097,0.014
			c-0.032,0.003-0.065,0.004-0.098,0.006c-0.033,0.001-0.066,0.003-0.099,0.003c-0.008,0-0.015,0.001-0.023,0.001
			c-0.01,0-0.02-0.003-0.03-0.004c-0.094-0.004-0.187-0.014-0.276-0.033c-0.006-0.001-0.013-0.001-0.019-0.002
			c-0.002,0-0.004-0.002-0.006-0.002c-0.08-0.018-0.156-0.044-0.228-0.075c-0.008-0.003-0.017-0.005-0.025-0.008
			c-0.034-0.015-0.067-0.032-0.098-0.05l-63.539-36.925l0,0c-0.199-0.116-0.299-0.267-0.299-0.419l-0.002-0.841
			C45.73,164.673,45.83,164.825,46.029,164.94z"/>
		<polyline style="fill:#9DB1CE;" points="67.465,167.191 63.041,164.637 62.077,165.197 66.501,167.752 67.465,167.191 		"/>
		<polyline style="fill:#9DB1CE;" points="72.4,164.323 67.976,161.769 67.075,162.292 70.044,164.006 70.031,164.014 
			65.223,163.369 64.265,163.925 68.69,166.48 69.59,165.956 66.628,164.246 66.641,164.239 71.436,164.884 72.4,164.323 		"/>
		<polyline style="fill:#9DB1CE;" points="72.708,159.019 71.706,159.601 73.825,161.972 73.813,161.979 69.72,160.755 
			68.724,161.334 74.576,163.059 75.667,162.425 72.708,159.019 		"/>
		<path style="fill:#9DB1CE;" d="M76.458,159.421c-0.773-0.446-1.196-1.065-0.327-1.57s1.946-0.265,2.718,0.181
			c0.741,0.428,1.158,1.051,0.289,1.556C78.27,160.092,77.199,159.848,76.458,159.421 M79.814,157.471
			c-1.315-0.759-3.136-0.885-4.5-0.092c-1.364,0.793-1.141,1.847,0.174,2.606c1.283,0.741,3.104,0.866,4.468,0.074
			C81.32,159.266,81.097,158.212,79.814,157.471"/>
		<polyline style="fill:#9DB1CE;" points="84.008,157.578 79.584,155.023 78.613,155.587 83.038,158.142 84.008,157.578 		"/>
		<path style="fill:#9DB1CE;" d="M87.429,153.615l-0.939,0.546c0.511,0.376,0.59,0.811,0,1.154c-0.869,0.505-1.94,0.262-2.68-0.166
			c-0.773-0.446-1.196-1.065-0.327-1.57c0.482-0.28,1.239-0.328,1.743-0.111l0.932-0.542c-1.136-0.523-2.522-0.383-3.493,0.181
			c-1.364,0.793-1.141,1.847,0.174,2.606c1.283,0.741,3.104,0.866,4.468,0.074C88.386,155.159,88.438,154.308,87.429,153.615"/>
		<polyline style="fill:#9DB1CE;" points="93.504,152.059 92.687,151.587 90.314,152.966 89.229,152.339 91.36,151.101 
			90.607,150.666 88.476,151.904 87.524,151.355 89.846,150.006 89.029,149.534 85.737,151.447 90.161,154.002 93.504,152.059 		"/>
	</g>
	<g>
		<path style="fill:#F7F7F7;" d="M111.621,140.663c0.404-0.233,1.057-0.233,1.458,0l63.539,36.925
			c0.401,0.233,0.399,0.611-0.005,0.844l-40.586,23.432c-0.405,0.234-1.058,0.234-1.459,0.001L71.029,164.94
			c-0.401-0.233-0.399-0.611,0.006-0.845L111.621,140.663z"/>
		<path style="fill:#E2DCDC;" d="M97.219,171.041c-0.405,0.234-0.407,0.612-0.006,0.845l1.212,0.705
			c0.402,0.234,1.056,0.234,1.461,0l26.083-15.059c0.405-0.234,0.407-0.612,0.005-0.846l-1.212-0.705
			c-0.401-0.233-1.054-0.233-1.459,0.001L97.219,171.041z"/>
		<path style="fill:#E2DCDC;" d="M104.701,175.389c-0.405,0.234-0.407,0.612-0.005,0.846l1.212,0.705
			c0.401,0.233,1.054,0.233,1.459-0.001l26.083-15.059c0.405-0.234,0.407-0.612,0.006-0.845l-1.212-0.705
			c-0.402-0.234-1.056-0.234-1.461,0L104.701,175.389z"/>
		<path style="fill:#E2DCDC;" d="M112.184,179.738c-0.405,0.234-0.407,0.612-0.006,0.845l1.212,0.705
			c0.402,0.234,1.056,0.234,1.461,0l26.083-15.059c0.405-0.234,0.407-0.612,0.005-0.846l-1.212-0.705
			c-0.401-0.233-1.054-0.233-1.459,0.001L112.184,179.738z"/>
		<path style="fill:#E2DCDC;" d="M119.666,184.086c-0.405,0.234-0.407,0.612-0.006,0.845l1.214,0.705
			c0.401,0.233,1.054,0.233,1.459-0.001l26.083-15.059c0.405-0.234,0.407-0.612,0.006-0.845l-1.214-0.705
			c-0.401-0.233-1.054-0.233-1.459,0.001L119.666,184.086z"/>
		<path style="fill:#D1C3C3;" d="M71.029,164.94L71.029,164.94l63.539,36.925c0.038,0.022,0.081,0.04,0.123,0.058
			c0.072,0.03,0.148,0.056,0.228,0.074c0.008,0.002,0.017,0.003,0.025,0.004c0.089,0.019,0.182,0.029,0.276,0.033
			c0.018,0.001,0.035,0.003,0.053,0.003c0.033,0,0.066-0.002,0.099-0.003c0.033-0.001,0.066-0.002,0.098-0.006
			c0.033-0.003,0.065-0.009,0.097-0.014c0.032-0.005,0.064-0.009,0.096-0.016c0.031-0.007,0.061-0.016,0.092-0.025
			c0.03-0.009,0.061-0.017,0.09-0.027c0.029-0.011,0.056-0.024,0.084-0.036c0.033-0.015,0.068-0.029,0.098-0.046l40.586-23.432
			c0.045-0.026,0.084-0.055,0.119-0.084c0.009-0.008,0.018-0.016,0.027-0.024c0.026-0.024,0.048-0.049,0.068-0.075
			c0.006-0.008,0.013-0.015,0.018-0.022c0.022-0.032,0.038-0.065,0.05-0.098c0.014-0.04,0.023-0.081,0.022-0.122l0.002,0.841
			c0,0.041-0.008,0.082-0.022,0.122c-0.001,0.002,0,0.004-0.001,0.007c-0.012,0.031-0.029,0.061-0.049,0.091
			c-0.005,0.008-0.012,0.015-0.018,0.022c-0.012,0.016-0.024,0.033-0.039,0.049c-0.009,0.009-0.02,0.017-0.029,0.026
			c-0.009,0.008-0.018,0.016-0.027,0.024c-0.035,0.029-0.074,0.058-0.119,0.084l-40.586,23.432c-0.01,0.006-0.021,0.012-0.032,0.018
			c-0.021,0.011-0.044,0.019-0.066,0.029c-0.028,0.012-0.055,0.026-0.084,0.036c-0.029,0.011-0.059,0.019-0.089,0.027
			c-0.031,0.009-0.061,0.018-0.092,0.025c-0.031,0.007-0.063,0.011-0.095,0.016c-0.032,0.005-0.064,0.011-0.097,0.014
			c-0.032,0.003-0.065,0.004-0.098,0.006c-0.033,0.001-0.066,0.003-0.099,0.003c-0.008,0-0.015,0.001-0.023,0.001
			c-0.01,0-0.02-0.003-0.03-0.004c-0.094-0.004-0.187-0.014-0.276-0.033c-0.006-0.001-0.013-0.001-0.019-0.002
			c-0.002,0-0.004-0.002-0.006-0.002c-0.08-0.018-0.156-0.044-0.228-0.075c-0.008-0.003-0.017-0.005-0.025-0.008
			c-0.034-0.015-0.067-0.032-0.098-0.05l-63.539-36.925l0,0c-0.199-0.116-0.299-0.267-0.299-0.419l-0.002-0.841
			C70.73,164.673,70.83,164.825,71.029,164.94z"/>
		<polyline style="fill:#9DB1CE;" points="92.465,167.191 88.041,164.637 87.077,165.197 91.501,167.752 92.465,167.191 		"/>
		<polyline style="fill:#9DB1CE;" points="97.4,164.323 92.976,161.769 92.075,162.292 95.044,164.006 95.031,164.014 
			90.223,163.369 89.265,163.925 93.69,166.48 94.59,165.956 91.628,164.246 91.641,164.239 96.436,164.884 97.4,164.323 		"/>
		<polyline style="fill:#9DB1CE;" points="97.708,159.019 96.706,159.601 98.825,161.972 98.813,161.979 94.72,160.755 
			93.724,161.334 99.576,163.059 100.667,162.425 97.708,159.019 		"/>
		<path style="fill:#9DB1CE;" d="M101.458,159.421c-0.773-0.446-1.196-1.065-0.327-1.57s1.946-0.265,2.718,0.181
			c0.741,0.428,1.158,1.051,0.289,1.556C103.27,160.092,102.199,159.848,101.458,159.421 M104.814,157.471
			c-1.315-0.759-3.136-0.885-4.5-0.092c-1.364,0.793-1.141,1.847,0.174,2.606c1.283,0.741,3.104,0.866,4.468,0.074
			C106.32,159.266,106.097,158.212,104.814,157.471"/>
		<polyline style="fill:#9DB1CE;" points="109.008,157.578 104.584,155.023 103.613,155.587 108.038,158.142 109.008,157.578 		"/>
		<path style="fill:#9DB1CE;" d="M112.429,153.615l-0.939,0.546c0.511,0.376,0.59,0.811,0,1.154c-0.869,0.505-1.94,0.262-2.68-0.166
			c-0.773-0.446-1.196-1.065-0.327-1.57c0.482-0.28,1.239-0.328,1.743-0.111l0.932-0.542c-1.136-0.523-2.522-0.383-3.493,0.181
			c-1.364,0.793-1.141,1.847,0.174,2.606c1.283,0.741,3.104,0.866,4.468,0.074C113.386,155.159,113.438,154.308,112.429,153.615"/>
		<polyline style="fill:#9DB1CE;" points="118.504,152.059 117.687,151.587 115.314,152.966 114.229,152.339 116.36,151.101 
			115.607,150.666 113.476,151.904 112.524,151.355 114.846,150.006 114.029,149.534 110.737,151.447 115.161,154.002 
			118.504,152.059 		"/>
	</g>
	<g>
		<g>
			<g style="enable-background:new    ;">
				<g>
					<polygon style="fill:#6CCA6C;" points="128.034,163.658 146.854,174.595 165.796,163.659 146.976,152.722 					"/>
				</g>
				<g>
					<polygon style="fill:#60B560;" points="128.034,163.658 128.044,167.067 146.864,178.004 146.854,174.595 					"/>
				</g>
				<g>
					<polygon style="fill:#437E43;" points="146.854,174.595 146.864,178.004 165.806,167.068 165.796,163.659 					"/>
				</g>
			</g>
		</g>
		<g>
			<g style="enable-background:new    ;">
				<g>
					<polygon style="fill:#CF5DD2;" points="128.035,160.279 146.853,171.215 165.795,160.279 146.977,149.343 					"/>
				</g>
				<g>
					<polygon style="fill:#B953BC;" points="128.035,160.279 128.045,163.687 146.863,174.623 146.853,171.215 					"/>
				</g>
				<g>
					<polygon style="fill:#813A83;" points="146.853,171.215 146.863,174.623 165.805,163.687 165.795,160.279 					"/>
				</g>
			</g>
		</g>
	</g>
	<g>
		<path style="fill-rule:evenodd;clip-rule:evenodd;fill:#FFC200;" d="M187.001,177.933l-48.628,6.069l0.42,3.364l48.628-6.069
			c0.929-0.116,1.588-0.963,1.472-1.892l0,0C188.777,178.476,187.93,177.817,187.001,177.933z"/>
		<polygon style="fill-rule:evenodd;clip-rule:evenodd;fill:#C68D66;" points="133.594,186.306 135.983,185.154 138.373,184.002 
			138.583,185.684 138.793,187.365 136.193,186.836 		"/>
		<polygon style="fill-rule:evenodd;clip-rule:evenodd;fill:#222222;" points="134.925,185.664 133.594,186.306 135.042,186.601 		
			"/>
		<path style="fill-rule:evenodd;clip-rule:evenodd;fill:#D06A2D;" d="M187.001,177.933l-1.171,0.146l0.42,3.364l1.171-0.146
			c0.929-0.116,1.588-0.963,1.472-1.892C188.777,178.476,187.93,177.817,187.001,177.933z"/>
	</g>
	<g id="Laptop_1_">
		<path style="fill:#454545;" d="M263.793,129.596c1.324,0.764,1.331,2.006,0.013,2.772l-52.395,30.449
			c-1.315,0.764-3.458,0.764-4.783,0l-65.81-37.996c-1.327-0.766-1.331-2.006-0.016-2.77l52.395-30.449
			c1.318-0.766,3.458-0.768,4.785-0.002L263.793,129.596z"/>
		<path style="fill:#515151;" d="M264.619,134.929c0.022-0.039,0.04-0.079,0.057-0.119c0.011-0.025,0.023-0.05,0.032-0.076
			c0.016-0.044,0.027-0.088,0.038-0.133c0.005-0.022,0.012-0.043,0.016-0.065c0.012-0.066,0.019-0.133,0.019-0.199l0.009-3.348
			c0,0.067-0.007,0.133-0.019,0.2c-0.004,0.022-0.011,0.043-0.016,0.065c-0.011,0.045-0.022,0.089-0.038,0.133
			c-0.009,0.025-0.021,0.051-0.032,0.076c-0.017,0.04-0.035,0.08-0.057,0.119c-0.014,0.026-0.031,0.052-0.047,0.078
			c-0.024,0.038-0.049,0.075-0.077,0.112c-0.022,0.029-0.045,0.058-0.069,0.087c-0.019,0.022-0.039,0.044-0.059,0.066
			c-0.038,0.041-0.079,0.081-0.122,0.12c-0.008,0.007-0.015,0.014-0.023,0.021c-0.055,0.048-0.115,0.095-0.178,0.14
			c-0.01,0.007-0.019,0.014-0.029,0.021c-0.068,0.048-0.14,0.095-0.217,0.139l-52.395,30.449c-0.163,0.095-0.339,0.177-0.523,0.248
			c-0.004,0.001-0.008,0.003-0.012,0.005c-0.183,0.07-0.376,0.128-0.575,0.175c-0.004,0.001-0.009,0.002-0.013,0.003
			c-0.197,0.046-0.401,0.081-0.607,0.104c-0.008,0.001-0.016,0.002-0.024,0.003c-0.199,0.022-0.4,0.032-0.602,0.033
			c-0.023,0-0.047,0-0.07,0c-0.134-0.001-0.266-0.012-0.399-0.022c-0.094-0.007-0.188-0.012-0.281-0.024
			c-0.116-0.014-0.229-0.037-0.342-0.059c-0.089-0.017-0.18-0.031-0.267-0.053c-0.184-0.045-0.364-0.098-0.535-0.163l-0.001,0
			c-0.188-0.072-0.366-0.155-0.532-0.251l-65.81-37.996c-0.082-0.047-0.158-0.096-0.23-0.147c-0.004-0.003-0.008-0.006-0.012-0.008
			c-0.067-0.048-0.13-0.097-0.188-0.148c-0.005-0.004-0.009-0.008-0.014-0.012c-0.059-0.052-0.114-0.106-0.164-0.16
			c-0.002-0.003-0.005-0.005-0.007-0.008c-0.048-0.053-0.091-0.107-0.13-0.162c-0.004-0.006-0.008-0.011-0.012-0.017
			c-0.037-0.053-0.07-0.108-0.098-0.162c-0.003-0.006-0.006-0.011-0.009-0.017c-0.027-0.054-0.05-0.109-0.069-0.164
			c-0.003-0.008-0.006-0.016-0.009-0.024c-0.017-0.054-0.03-0.107-0.04-0.162c-0.003-0.015-0.004-0.029-0.006-0.044
			c-0.007-0.054-0.013-0.108-0.013-0.162l-0.009,3.348c0,0.033,0.001,0.067,0.004,0.1c0.002,0.021,0.006,0.041,0.009,0.062
			c0.002,0.015,0.004,0.029,0.006,0.044c0.002,0.009,0.002,0.018,0.004,0.027c0.008,0.038,0.017,0.076,0.029,0.114
			c0.002,0.007,0.005,0.014,0.007,0.02c0.003,0.008,0.006,0.016,0.009,0.024c0.007,0.019,0.013,0.038,0.02,0.057
			c0.012,0.03,0.026,0.061,0.04,0.091c0.003,0.005,0.006,0.01,0.008,0.016c0.003,0.006,0.006,0.011,0.009,0.017
			c0.009,0.018,0.019,0.036,0.029,0.054c0.016,0.027,0.032,0.054,0.05,0.08c0.006,0.009,0.013,0.018,0.019,0.028
			c0.004,0.006,0.008,0.011,0.012,0.017c0.008,0.011,0.015,0.022,0.023,0.032c0.018,0.025,0.038,0.049,0.058,0.073
			c0.016,0.019,0.032,0.037,0.049,0.055c0.002,0.003,0.005,0.005,0.007,0.008c0.002,0.002,0.004,0.005,0.007,0.007
			c0.021,0.023,0.043,0.046,0.066,0.069c0.023,0.023,0.047,0.045,0.071,0.067c0.006,0.006,0.013,0.011,0.02,0.017
			c0.004,0.004,0.009,0.008,0.013,0.011c0.014,0.012,0.028,0.025,0.043,0.037c0.026,0.022,0.054,0.044,0.082,0.065
			c0.02,0.015,0.042,0.031,0.063,0.046c0.004,0.003,0.008,0.006,0.012,0.009c0.004,0.003,0.008,0.006,0.013,0.009
			c0.031,0.022,0.063,0.043,0.096,0.064c0.034,0.021,0.068,0.043,0.104,0.063c0.006,0.003,0.011,0.007,0.017,0.01l65.81,37.996
			c0.033,0.019,0.066,0.037,0.099,0.055c0.041,0.022,0.082,0.043,0.124,0.063c0.047,0.023,0.094,0.044,0.143,0.065
			c0.054,0.023,0.109,0.046,0.165,0.067l0,0l0.001,0c0.065,0.025,0.131,0.048,0.198,0.07c0.09,0.029,0.181,0.056,0.275,0.08
			c0.02,0.005,0.042,0.007,0.062,0.012c0.087,0.022,0.177,0.036,0.267,0.053c0.114,0.022,0.226,0.044,0.342,0.059
			c0.093,0.012,0.187,0.017,0.281,0.024c0.083,0.006,0.165,0.019,0.249,0.021c0.05,0.002,0.1,0.001,0.15,0.001
			c0.024,0,0.047,0.001,0.071,0c0.029,0,0.059,0.001,0.088,0c0.079-0.002,0.158-0.005,0.237-0.01
			c0.067-0.004,0.135-0.009,0.202-0.016c0.025-0.002,0.051-0.006,0.076-0.008c0.008-0.001,0.016-0.002,0.024-0.003
			c0.026-0.003,0.051-0.005,0.077-0.009c0.053-0.007,0.107-0.014,0.16-0.023c0.051-0.008,0.101-0.017,0.152-0.026
			c0.046-0.009,0.093-0.018,0.139-0.028c0.027-0.006,0.054-0.012,0.08-0.019c0.005-0.001,0.009-0.002,0.014-0.003
			c0.013-0.003,0.027-0.006,0.04-0.009c0.043-0.01,0.085-0.021,0.127-0.033c0.041-0.011,0.082-0.023,0.123-0.035
			c0.04-0.012,0.079-0.025,0.119-0.038c0.039-0.013,0.078-0.027,0.116-0.041c0.017-0.006,0.034-0.013,0.051-0.02
			c0.004-0.001,0.007-0.003,0.011-0.004c0.017-0.007,0.034-0.013,0.051-0.02c0.038-0.015,0.075-0.031,0.112-0.047
			c0.037-0.016,0.074-0.033,0.11-0.05c0.037-0.018,0.074-0.036,0.11-0.055c0.037-0.019,0.073-0.039,0.109-0.059
			c0.011-0.006,0.022-0.012,0.032-0.018l52.395-30.449c0.027-0.016,0.053-0.032,0.079-0.048c0.037-0.023,0.073-0.046,0.108-0.07
			c0.01-0.007,0.02-0.014,0.03-0.022c0.01-0.007,0.019-0.014,0.029-0.021c0.018-0.013,0.038-0.026,0.055-0.04
			c0.04-0.03,0.078-0.061,0.115-0.093c0.003-0.003,0.005-0.005,0.008-0.008c0.008-0.007,0.015-0.014,0.022-0.021
			c0.03-0.027,0.061-0.054,0.088-0.082c0.012-0.012,0.022-0.026,0.034-0.038c0.021-0.022,0.04-0.044,0.059-0.066
			c0.013-0.015,0.029-0.03,0.041-0.046c0.011-0.013,0.018-0.027,0.028-0.04c0.028-0.037,0.054-0.074,0.077-0.112
			C264.589,134.982,264.605,134.956,264.619,134.929z"/>
		<path style="fill:#454545;" d="M197.233,27.59c-0.334-0.193-0.653-0.298-0.942-0.324c-0.072-0.006-0.143-0.008-0.211-0.004
			c-0.206,0.01-0.393,0.065-0.557,0.16l-2.894,1.682c0.437-0.254,1.042-0.218,1.71,0.168l2.764,1.596l2.894-1.682L197.233,27.59z"/>
		<polygon style="fill:#B7C5F1;" points="199.542,42.824 255.437,120.222 199.415,87.877 		"/>
		<path style="fill:#4B4B4B;" d="M265.249,130.608c0.009-0.09,0.014-0.183,0.014-0.28l0.002-0.563l-2.894,1.682l-0.002,0.563
			c0,0.097-0.005,0.19-0.014,0.28c-0.003,0.031-0.009,0.059-0.013,0.089c-0.008,0.057-0.015,0.115-0.026,0.168
			c-0.002,0.012-0.006,0.022-0.009,0.034c-0.032,0.142-0.074,0.274-0.13,0.391c-0.002,0.004-0.005,0.008-0.007,0.012
			c-0.043,0.088-0.093,0.167-0.148,0.24c-0.012,0.016-0.023,0.032-0.036,0.047c-0.056,0.068-0.116,0.129-0.182,0.181
			c-0.044,0.035-0.088,0.067-0.136,0.095l0,0l0,0l2.894-1.682c0.044-0.026,0.086-0.054,0.127-0.085
			c0.003-0.003,0.006-0.007,0.009-0.009c0.066-0.053,0.127-0.114,0.182-0.181c0.005-0.006,0.012-0.011,0.017-0.017
			c0.007-0.009,0.012-0.021,0.019-0.03c0.055-0.073,0.105-0.152,0.148-0.24c0.002-0.003,0.004-0.006,0.006-0.009
			c0-0.001,0-0.002,0.001-0.003c0.055-0.117,0.098-0.249,0.13-0.391c0.002-0.007,0.005-0.013,0.007-0.02
			c0.001-0.004,0.001-0.01,0.002-0.014c0.011-0.054,0.018-0.111,0.026-0.169C265.24,130.666,265.246,130.638,265.249,130.608z"/>
		<path style="fill:#525252;" d="M254.471,119.664l7.877,12.192c0.013-0.131,0.022-0.265,0.022-0.41l-0.002,0.563
			c-0.004,1.521-1.083,2.136-2.409,1.37l-65.808-37.994c-1.327-0.766-2.398-2.622-2.394-4.143l0.172-60.599
			c0.004-1.525,1.083-2.136,2.409-1.37l2.764,1.596L207.97,47.69l-8.428-4.866l-0.128,45.053L254.471,119.664z"/>
		<polygon style="fill:#D2DCF4;" points="255.565,75.169 255.437,120.222 199.542,42.824 207.97,47.69 		"/>
		<path style="fill:#616161;" d="M265.408,69.765c-0.006-0.059-0.017-0.118-0.024-0.177c-0.015-0.117-0.029-0.234-0.051-0.351
			c-0.013-0.071-0.032-0.14-0.047-0.211c-0.023-0.105-0.046-0.21-0.074-0.314c-0.02-0.074-0.045-0.146-0.068-0.219
			c-0.031-0.098-0.06-0.197-0.095-0.293c-0.006-0.017-0.01-0.035-0.017-0.051c-0.012-0.032-0.028-0.062-0.041-0.094
			c-0.065-0.167-0.136-0.329-0.212-0.487c-0.015-0.031-0.026-0.065-0.041-0.095c-0.013-0.025-0.028-0.048-0.041-0.073
			c-0.047-0.089-0.096-0.174-0.146-0.26c-0.027-0.046-0.05-0.095-0.078-0.139c-0.012-0.02-0.026-0.037-0.039-0.057
			c-0.038-0.06-0.079-0.116-0.119-0.174c-0.034-0.048-0.065-0.1-0.1-0.146c-0.031-0.042-0.063-0.083-0.095-0.123
			c-0.056-0.07-0.114-0.138-0.173-0.202c-0.006-0.006-0.012-0.011-0.018-0.018c-0.09-0.098-0.183-0.19-0.278-0.274
			c-0.006-0.005-0.011-0.012-0.017-0.017c-0.042-0.037-0.085-0.068-0.128-0.102c-0.025-0.02-0.05-0.042-0.076-0.061
			c-0.077-0.056-0.154-0.108-0.233-0.153l-63.199-36.488l-2.894,1.682l63.199,36.488c0.079,0.045,0.156,0.097,0.233,0.153
			c0.026,0.019,0.051,0.041,0.076,0.061c0.049,0.038,0.097,0.076,0.145,0.118c0.095,0.084,0.188,0.175,0.278,0.274
			c0.065,0.07,0.129,0.143,0.19,0.22c0.068,0.085,0.131,0.177,0.195,0.269c0.04,0.058,0.081,0.114,0.119,0.174
			c0.04,0.063,0.078,0.129,0.116,0.195c0.05,0.085,0.1,0.171,0.146,0.26c0.029,0.055,0.055,0.112,0.083,0.169
			c0.077,0.158,0.148,0.321,0.212,0.488c0.019,0.048,0.04,0.096,0.057,0.145c0.035,0.097,0.065,0.195,0.096,0.294
			c0.023,0.073,0.047,0.145,0.068,0.219c0.029,0.104,0.051,0.209,0.074,0.315c0.016,0.07,0.034,0.14,0.047,0.21
			c0.022,0.117,0.036,0.234,0.051,0.351c0.007,0.059,0.019,0.118,0.024,0.177c0.017,0.176,0.026,0.351,0.025,0.524l-0.169,59.476
			l2.894-1.682l0.169-59.476C265.434,70.115,265.425,69.94,265.408,69.765z"/>
		<path style="fill:#494949;" d="M261.785,68.963c0.062,0.102,0.12,0.207,0.176,0.312c0.021,0.04,0.042,0.081,0.062,0.122
			c0.081,0.165,0.155,0.332,0.219,0.501c0.02,0.053,0.036,0.106,0.054,0.159c0.023,0.068,0.047,0.137,0.067,0.205
			c0.017,0.057,0.03,0.113,0.044,0.17c0.017,0.067,0.035,0.134,0.049,0.201c0.012,0.057,0.02,0.114,0.029,0.171
			c0.01,0.063,0.021,0.127,0.028,0.189c0.016,0.141,0.027,0.281,0.026,0.417l2.894-1.682c0-0.137-0.01-0.276-0.026-0.417
			c-0.001-0.013-0.001-0.025-0.002-0.037c-0.006-0.05-0.018-0.101-0.026-0.152c-0.009-0.057-0.018-0.114-0.029-0.171
			c-0.014-0.066-0.031-0.133-0.048-0.2c-0.015-0.057-0.028-0.114-0.044-0.171c-0.02-0.068-0.044-0.135-0.067-0.203
			c-0.016-0.047-0.029-0.094-0.046-0.14c-0.003-0.007-0.007-0.014-0.009-0.021c-0.064-0.169-0.138-0.336-0.219-0.501
			c-0.008-0.017-0.014-0.034-0.022-0.051c-0.012-0.024-0.027-0.046-0.039-0.07c-0.055-0.106-0.114-0.21-0.176-0.313
			c-0.015-0.025-0.028-0.052-0.043-0.077c-0.007-0.011-0.015-0.021-0.022-0.032c-0.081-0.128-0.165-0.253-0.256-0.373
			c-0.001-0.001-0.002-0.003-0.003-0.004c-0.076-0.102-0.156-0.2-0.238-0.295l-2.894,1.682c0.083,0.096,0.163,0.196,0.24,0.299
			c0.09,0.12,0.175,0.245,0.256,0.373C261.743,68.89,261.763,68.927,261.785,68.963z"/>
		<path style="fill:#737373;" d="M260.301,67.356c0.329,0.19,0.642,0.475,0.923,0.826c0.779,0.971,1.319,2.443,1.315,3.789
			l-0.169,59.476c0,0.145-0.009,0.279-0.022,0.41l-7.877-12.191l0.966,0.558l0.128-45.053L207.97,47.69l-10.868-16.822
			L260.301,67.356z"/>
	</g>
	<path style="fill:#88379B;" d="M99.044,63.241l20.132,6.105c0.164,0.104,0.328,0.212,0.503,0.313
		c0.13,0.076,0.266,0.145,0.399,0.216l12.904,14.75l13.792-14.722l-24.488-1.358c-0.117-0.065-0.234-0.13-0.352-0.198
		c-0.156-0.091-0.307-0.185-4.258-1.517l-15.224-4.939L99.044,63.241z"/>
	<path style="fill:#88379B;" d="M96.568,67.315c-0.61-2.049-2.395-1.518-2.395-1.518l-11.708,1.556l-0.331,0.639l1.569,6.407
		c0,0,7.155-2.246,10.468-3.51C97.055,69.788,96.931,68.534,96.568,67.315z M95.03,69.164c-0.759,0.101-1.545,0.313-2.327-0.152
		c-0.781-0.464-0.994-1.103-0.207-1.568c0.786-0.464,2.057-0.464,2.838,0C96.116,67.91,95.935,69.044,95.03,69.164z"/>
	<path style="fill:#FFFFFF;" d="M96.566,67.617c-0.424-1.713-1.435-2.196-3.256-2.247c-1.821-0.051-10.795,1.905-10.795,1.905
		l1.384,5.042l11.054-2.609C94.953,69.708,96.99,69.33,96.566,67.617z M95.124,68.437c-0.771,0.445-2.014,0.445-2.78,0
		c-0.764-0.444-0.76-1.164,0.011-1.609c0.769-0.444,2.013-0.444,2.776,0C95.896,67.273,95.892,67.993,95.124,68.437z"/>
	<path style="fill:#662276;" d="M94.575,68.146c-0.237,0-0.447-0.168-0.491-0.41c-0.05-0.271,0.13-0.532,0.401-0.582l21.743-4
		c0.273-0.049,0.532,0.13,0.582,0.401s-0.13,0.532-0.401,0.582l-21.743,4C94.635,68.144,94.604,68.146,94.575,68.146z"/>
	<path style="fill:#B6A4A4;" d="M122.19,54.862c-2.16,1.247-3.085,3-2.868,4.882c0.039-0.052,0.079-0.103,0.121-0.154
		c0.461-0.565,1.08-1.082,1.859-1.532c4.782-2.761,13.781-2.021,20.104,1.653c3.364,1.955,5.286,4.349,5.633,6.575
		c0.01,0.065,0.019,0.13,0.026,0.194c2.188-2.884,0.423-6.944-4.774-9.964C135.971,52.844,126.97,52.103,122.19,54.862z"/>
	<path style="fill:#54405A;" d="M121.302,58.058c-0.779,0.45-1.398,0.967-1.859,1.532c0.179,2.305,2.11,4.829,5.625,6.871
		c6.26,3.638,15.167,4.37,19.9,1.638c0.908-0.524,1.596-1.138,2.071-1.812c-0.346-2.227-2.269-4.621-5.633-6.575
		C135.083,56.037,126.084,55.297,121.302,58.058z"/>
	<path style="fill:#FFFFFF;" d="M121.934,68.349c-0.156-0.091-0.307-0.185-0.461-0.277l-15.224-4.939l-3.858-1.251l15.673-7.422
		l0.015,0.082c1.934-1.051,4.361-1.681,7.014-1.909c5.648-0.486,12.318,0.851,17.437,3.826c5.133,2.983,7.42,6.864,6.547,10.14
		c-0.426,1.598-1.604,3.052-3.57,4.187c-0.092,0.053-0.184,0.1-0.278,0.151l-12.327,8.677l-2.15-2.241l-8.466-8.825
		C122.168,68.482,122.051,68.417,121.934,68.349z M144.967,68.099c0.908-0.524,1.596-1.138,2.071-1.812
		c0.01,0.065,0.019,0.13,0.026,0.194c2.188-2.884,0.423-6.944-4.774-9.964c-6.319-3.672-15.321-4.414-20.101-1.655
		c-2.16,1.247-3.085,3-2.868,4.882c0.039-0.052,0.079-0.103,0.121-0.154c0.179,2.305,2.11,4.829,5.624,6.871
		C131.327,70.099,140.234,70.831,144.967,68.099"/>
</g>
</svg>
